<svg width="628" height="177" viewBox="0 0 628 177" fill="none" xmlns="http://www.w3.org/2000/svg">
<g clip-path="url(#clip0_341_459)">
<mask id="mask0_341_459" style="mask-type:luminance" maskUnits="userSpaceOnUse" x="0" y="0" width="664" height="204">
<path d="M664 3.05176e-05L0 3.05176e-05V203.844C120.989 164.721 215.817 161.73 336.731 151.359C454.218 141.281 608.207 96.8358 664 3.05176e-05Z" fill="white"/>
</mask>
<g mask="url(#mask0_341_459)">
<path d="M-5.61084 223.247C-5.61084 223.294 -5.61084 223.335 -5.58594 223.381L3.12909 247.132C3.2038 247.336 3.43616 247.5 3.72662 247.552L34.3537 253.126L3.72662 258.7C3.43616 258.753 3.2038 258.916 3.12909 259.121L-5.58594 282.865C-5.60254 282.912 -5.61084 282.953 -5.61084 283V283.011C-5.61084 283.076 -5.58594 283.14 -5.56104 283.204C-5.56104 283.222 -5.54443 283.233 -5.53613 283.251C-5.49463 283.315 -5.44482 283.374 -5.37842 283.42C-5.30371 283.473 -5.2207 283.508 -5.12946 283.537C-5.11285 283.543 -5.08795 283.549 -5.07135 283.555C-4.98004 283.578 -4.88879 283.59 -4.79749 283.59H-4.78082C-4.71448 283.59 -4.65637 283.59 -4.58997 283.572L29.1412 277.437C29.4318 277.385 29.6642 277.221 29.7389 277.017L37.657 255.452L45.5753 277.017C45.65 277.221 45.8824 277.385 46.1729 277.437L79.9124 283.572C79.9124 283.572 79.9954 283.578 80.0369 283.584C80.0618 283.584 80.0867 283.59 80.1199 283.59C80.1199 283.59 80.1199 283.59 80.1282 283.59C80.2029 283.59 80.2859 283.584 80.3606 283.566L114.067 277.432C114.357 277.379 114.59 277.215 114.664 277.011L122.583 255.446L130.501 277.011C130.576 277.215 130.808 277.379 131.099 277.432L164.83 283.566C164.88 283.578 164.929 283.578 164.979 283.578C164.996 283.578 165.012 283.578 165.029 283.578C165.104 283.578 165.178 283.572 165.253 283.555L198.968 277.42C199.258 277.367 199.49 277.204 199.565 276.999L207.483 255.434L215.402 276.999C215.476 277.204 215.709 277.367 215.999 277.42L249.73 283.555C249.772 283.561 249.822 283.561 249.863 283.566C249.888 283.566 249.905 283.572 249.93 283.572C249.93 283.572 249.93 283.572 249.938 283.572C250.013 283.572 250.087 283.566 250.162 283.549L283.877 277.414C284.167 277.361 284.399 277.198 284.474 276.993L292.392 255.428L300.311 276.993C300.385 277.198 300.618 277.361 300.908 277.414L334.623 283.549H334.631C334.631 283.549 334.697 283.555 334.731 283.561C334.764 283.561 334.797 283.572 334.83 283.572C334.83 283.572 334.83 283.572 334.839 283.572C334.922 283.572 334.996 283.561 335.071 283.549L368.777 277.414C369.068 277.361 369.3 277.198 369.375 276.993L377.293 255.428L385.211 276.993C385.286 277.198 385.518 277.361 385.809 277.414L419.548 283.549C419.59 283.555 419.631 283.555 419.673 283.561C419.698 283.561 419.723 283.566 419.748 283.566C419.748 283.566 419.748 283.566 419.756 283.566C419.831 283.566 419.914 283.561 419.988 283.543L453.703 277.408C453.993 277.356 454.226 277.192 454.3 276.988L462.219 255.422L470.137 276.988C470.212 277.192 470.444 277.356 470.734 277.408L504.466 283.543C504.516 283.555 504.565 283.555 504.615 283.555C504.632 283.555 504.648 283.555 504.673 283.555C504.748 283.555 504.823 283.549 504.897 283.531L538.612 277.397C538.902 277.344 539.135 277.18 539.21 276.976L547.128 255.411L555.046 276.976C555.121 277.18 555.353 277.344 555.644 277.397L589.375 283.531C589.416 283.537 589.466 283.537 589.508 283.543C589.532 283.543 589.557 283.549 589.574 283.549C589.574 283.549 589.574 283.549 589.582 283.549C589.657 283.549 589.74 283.543 589.806 283.525L623.521 277.391C623.811 277.338 624.044 277.175 624.119 276.97L632.037 255.405L639.955 276.97C640.03 277.175 640.262 277.338 640.553 277.391L674.284 283.525C674.342 283.537 674.408 283.543 674.466 283.543C674.475 283.543 674.483 283.543 674.491 283.543C674.583 283.543 674.674 283.525 674.757 283.508C674.782 283.502 674.807 283.496 674.832 283.485C674.923 283.455 675.006 283.42 675.072 283.374C675.147 283.321 675.197 283.263 675.238 283.204C675.247 283.187 675.255 283.175 675.263 283.157C675.296 283.093 675.313 283.029 675.313 282.965C675.313 282.965 675.313 282.959 675.313 282.953C675.313 282.906 675.313 282.859 675.288 282.818L666.59 259.115C666.515 258.91 666.283 258.747 665.992 258.694L635.365 253.12L666 247.547C666.291 247.494 666.523 247.33 666.598 247.126L675.313 223.393C675.338 223.34 675.346 223.288 675.346 223.235C675.346 223.235 675.346 223.229 675.346 223.224C675.346 223.177 675.346 223.13 675.321 223.089L666.598 199.345C666.523 199.14 666.291 198.977 666 198.924L635.373 193.35L666.009 187.776C666.299 187.724 666.532 187.56 666.606 187.356L675.321 163.605C675.338 163.559 675.346 163.512 675.346 163.471C675.346 163.471 675.346 163.465 675.346 163.459C675.346 163.401 675.33 163.348 675.313 163.296L666.598 139.569C666.523 139.364 666.291 139.201 666 139.148L635.373 133.574L666 128C666.291 127.948 666.523 127.784 666.598 127.58L675.313 103.847C675.338 103.794 675.346 103.742 675.346 103.683C675.346 103.683 675.346 103.678 675.346 103.672C675.346 103.625 675.346 103.578 675.321 103.537L666.606 79.7928C666.532 79.5884 666.299 79.4248 666.009 79.3722L635.382 73.7983L666.009 68.2244C666.299 68.1719 666.532 68.0083 666.606 67.8038L675.321 44.0535C675.338 44.0067 675.346 43.96 675.346 43.9191C675.346 43.9191 675.346 43.9133 675.346 43.9074C675.346 43.8431 675.33 43.7789 675.296 43.7204V43.6912H675.288L666.598 20.0169C666.523 19.8124 666.291 19.6488 666 19.5962L635.373 14.0223L666 8.44849C666.291 8.3959 666.523 8.23227 666.598 8.0278L675.313 -15.705C675.338 -15.7576 675.346 -15.8101 675.346 -15.8686C675.346 -15.8686 675.346 -15.8744 675.346 -15.8802C675.346 -15.927 675.346 -15.9737 675.321 -16.0146L666.606 -39.7591C666.532 -39.9636 666.299 -40.1272 666.009 -40.1798L635.382 -45.7536L666.009 -51.3275C666.299 -51.3801 666.532 -51.5437 666.606 -51.7482L675.321 -75.4926C675.338 -75.5394 675.346 -75.5861 675.346 -75.627C675.346 -75.627 675.346 -75.6329 675.346 -75.6387C675.346 -75.6913 675.338 -75.7497 675.313 -75.7964L666.598 -99.5292C666.523 -99.7337 666.291 -99.8973 666 -99.9499L635.373 -105.524L666 -111.098C666.291 -111.15 666.523 -111.314 666.598 -111.518L675.313 -135.251C675.338 -135.304 675.346 -135.356 675.346 -135.415C675.346 -135.415 675.346 -135.421 675.346 -135.426C675.346 -135.473 675.346 -135.52 675.321 -135.561L666.606 -159.311C666.532 -159.516 666.299 -159.679 666.009 -159.732L635.382 -165.306L666.009 -170.879C666.299 -170.932 666.532 -171.096 666.606 -171.3L675.321 -195.045C675.338 -195.091 675.346 -195.138 675.346 -195.179C675.346 -195.179 675.346 -195.185 675.346 -195.191C675.346 -195.255 675.321 -195.319 675.296 -195.383C675.296 -195.401 675.28 -195.413 675.271 -195.43C675.23 -195.494 675.18 -195.553 675.105 -195.6C675.022 -195.658 674.931 -195.699 674.832 -195.728C674.732 -195.757 674.624 -195.769 674.516 -195.769C674.45 -195.769 674.375 -195.763 674.309 -195.752L640.577 -189.617C640.287 -189.564 640.055 -189.401 639.98 -189.196L632.062 -167.631L624.143 -189.196C624.069 -189.401 623.836 -189.564 623.546 -189.617L589.815 -195.752C589.748 -195.763 589.674 -195.769 589.607 -195.769C589.541 -195.769 589.466 -195.763 589.4 -195.752L555.668 -189.617C555.378 -189.564 555.146 -189.401 555.071 -189.196L547.153 -167.631L539.234 -189.196C539.16 -189.401 538.927 -189.564 538.637 -189.617L504.906 -195.752C504.839 -195.763 504.765 -195.769 504.698 -195.769C504.632 -195.769 504.557 -195.763 504.491 -195.752L470.759 -189.617C470.469 -189.564 470.237 -189.401 470.162 -189.196L462.244 -167.631L454.325 -189.196C454.251 -189.401 454.018 -189.564 453.728 -189.617L419.997 -195.752C419.93 -195.763 419.855 -195.769 419.789 -195.769C419.723 -195.769 419.648 -195.763 419.582 -195.752L385.85 -189.617C385.56 -189.564 385.327 -189.401 385.253 -189.196L377.335 -167.631L369.416 -189.196C369.342 -189.401 369.109 -189.564 368.819 -189.617L335.088 -195.752C335.021 -195.763 334.955 -195.769 334.888 -195.769C334.822 -195.769 334.756 -195.763 334.689 -195.752L300.958 -189.617C300.667 -189.564 300.435 -189.401 300.36 -189.196L292.442 -167.631L284.524 -189.196C284.449 -189.401 284.217 -189.564 283.926 -189.617L250.195 -195.752C250.129 -195.763 250.054 -195.769 249.988 -195.769C249.921 -195.769 249.847 -195.763 249.78 -195.752L216.049 -189.617C215.758 -189.564 215.526 -189.401 215.451 -189.196L207.533 -167.631L199.615 -189.196C199.54 -189.401 199.308 -189.564 199.017 -189.617L165.278 -195.752C165.211 -195.763 165.137 -195.769 165.07 -195.769C165.004 -195.769 164.929 -195.763 164.863 -195.752L131.132 -189.617C130.841 -189.564 130.609 -189.401 130.534 -189.196L122.616 -167.631L114.698 -189.196C114.623 -189.401 114.391 -189.564 114.1 -189.617L80.3689 -195.752C80.3025 -195.763 80.2278 -195.769 80.1614 -195.769C80.095 -195.769 80.0203 -195.763 79.9539 -195.752L46.2144 -189.617C45.9239 -189.564 45.6915 -189.401 45.6168 -189.196L37.6985 -167.631L29.7804 -189.196C29.7057 -189.401 29.4733 -189.564 29.1827 -189.617L-4.5484 -195.752C-4.61481 -195.763 -4.68951 -195.769 -4.75592 -195.769C-4.86383 -195.769 -4.97174 -195.752 -5.07135 -195.728C-5.1709 -195.699 -5.26227 -195.658 -5.34521 -195.6C-5.41992 -195.547 -5.46973 -195.489 -5.50293 -195.43C-5.51123 -195.413 -5.51953 -195.401 -5.52783 -195.383C-5.56104 -195.319 -5.57764 -195.255 -5.57764 -195.191V-195.179C-5.57764 -195.132 -5.57764 -195.091 -5.55273 -195.045L3.16223 -171.3C3.23694 -171.096 3.46936 -170.932 3.75989 -170.879L34.3868 -165.306L3.75989 -159.732C3.46936 -159.679 3.23694 -159.516 3.16223 -159.311L-5.55273 -135.578C-5.57764 -135.526 -5.58594 -135.473 -5.58594 -135.415V-135.403C-5.58594 -135.356 -5.58594 -135.315 -5.56104 -135.269L3.15393 -111.524C3.22864 -111.32 3.46106 -111.156 3.75159 -111.103L34.3785 -105.53L3.75159 -99.9557C3.46106 -99.9031 3.22864 -99.7396 3.15393 -99.5351L-5.56104 -75.7906C-5.57764 -75.7439 -5.58594 -75.703 -5.58594 -75.6562V-75.6445C-5.58594 -75.5919 -5.56934 -75.5335 -5.55273 -75.481L3.16223 -51.7482C3.23694 -51.5437 3.46936 -51.3801 3.75989 -51.3275L34.3868 -45.7536L3.75989 -40.1798C3.46936 -40.1272 3.23694 -39.9636 3.16223 -39.7591L-5.55273 -16.0263C-5.57764 -15.9737 -5.58594 -15.9212 -5.58594 -15.8627V-15.851C-5.58594 -15.8043 -5.58594 -15.7634 -5.56104 -15.7167L3.15393 8.0278C3.22864 8.23227 3.46106 8.3959 3.75159 8.44849L34.3785 14.0223L3.75159 19.5962C3.46106 19.6488 3.22864 19.8124 3.15393 20.0169L-5.56104 43.7614C-5.57764 43.8081 -5.58594 43.849 -5.58594 43.8957V43.9074C-5.58594 43.9717 -5.56934 44.0359 -5.53613 44.0943V44.1177C-5.53613 44.1177 -5.52783 44.1236 -5.52783 44.1294L3.16223 67.8038C3.23694 68.0083 3.46936 68.1719 3.75989 68.2244L34.3868 73.7983L3.75989 79.3722C3.46936 79.4248 3.23694 79.5884 3.16223 79.7928L-5.55273 103.526C-5.57764 103.578 -5.58594 103.631 -5.58594 103.683V103.695C-5.58594 103.742 -5.58594 103.783 -5.56104 103.829L3.15393 127.58C3.22864 127.784 3.46106 127.948 3.75159 128L34.3785 133.574L3.75159 139.148C3.46106 139.201 3.22864 139.364 3.15393 139.569L-5.56104 163.313C-5.57764 163.36 -5.58594 163.401 -5.58594 163.448V163.459C-5.58594 163.518 -5.56934 163.57 -5.55273 163.623L3.16223 187.35C3.23694 187.554 3.46936 187.718 3.75989 187.771L34.3868 193.344L3.75989 198.918C3.46936 198.971 3.23694 199.134 3.16223 199.339L-5.55273 223.072C-5.57764 223.124 -5.58594 223.177 -5.58594 223.235V223.247H-5.61084ZM598.106 258.694C597.816 258.747 597.583 258.91 597.509 259.115L589.591 280.674L581.672 259.115C581.598 258.91 581.365 258.747 581.075 258.694L550.448 253.12L581.075 247.547C581.365 247.494 581.598 247.33 581.672 247.126L589.591 225.567L597.509 247.126C597.583 247.33 597.816 247.494 598.106 247.547L628.733 253.12L598.106 258.694ZM513.197 258.694C512.907 258.747 512.674 258.91 512.6 259.115L504.682 280.68L496.763 259.115C496.689 258.91 496.456 258.747 496.166 258.694L465.539 253.12L496.166 247.547C496.456 247.494 496.689 247.33 496.763 247.126L504.682 225.561L512.6 247.126C512.674 247.33 512.907 247.494 513.197 247.547L543.824 253.12L513.197 258.694ZM428.28 258.694C427.989 258.747 427.757 258.91 427.682 259.115L419.764 280.674L411.846 259.115C411.771 258.91 411.539 258.747 411.248 258.694L380.621 253.12L411.248 247.547C411.539 247.494 411.771 247.33 411.846 247.126L419.764 225.567L427.682 247.126C427.757 247.33 427.989 247.494 428.28 247.547L458.907 253.12L428.28 258.694ZM343.371 258.694C343.08 258.747 342.848 258.91 342.773 259.115L334.863 280.668L326.945 259.115C326.871 258.91 326.638 258.747 326.348 258.694L295.721 253.12L326.348 247.547C326.638 247.494 326.871 247.33 326.945 247.126L334.863 225.572L342.782 247.126C342.856 247.33 343.089 247.494 343.379 247.547L374.006 253.12L343.379 258.694H343.371ZM258.462 258.694C258.171 258.747 257.939 258.91 257.864 259.115L249.946 280.674L242.028 259.115C241.953 258.91 241.721 258.747 241.43 258.694L210.803 253.12L241.43 247.547C241.721 247.494 241.953 247.33 242.028 247.126L249.946 225.567L257.864 247.126C257.939 247.33 258.171 247.494 258.462 247.547L289.089 253.12L258.462 258.694ZM173.553 258.694C173.262 258.747 173.03 258.91 172.955 259.115L165.037 280.68L157.119 259.115C157.044 258.91 156.812 258.747 156.521 258.694L125.894 253.12L156.521 247.547C156.812 247.494 157.044 247.33 157.119 247.126L165.037 225.561L172.955 247.126C173.03 247.33 173.262 247.494 173.553 247.547L204.18 253.12L173.553 258.694ZM88.6357 258.694C88.3452 258.747 88.1128 258.91 88.0381 259.115L80.1199 280.674L72.2017 259.115C72.127 258.91 71.8946 258.747 71.6041 258.694L40.9771 253.12L71.6041 247.547C71.8946 247.494 72.127 247.33 72.2017 247.126L80.1199 225.567L88.0381 247.126C88.1128 247.33 88.3452 247.494 88.6357 247.547L119.263 253.12L88.6357 258.694ZM89.5404 -158.657L119.852 -164.172L81.7052 -137.319L89.5404 -158.657ZM174.458 -158.657L204.769 -164.172L166.622 -137.319L174.458 -158.657ZM259.367 -158.657L289.687 -164.172L251.54 -137.319L259.375 -158.657H259.367ZM344.276 -158.657L374.587 -164.172L336.44 -137.319L344.276 -158.657ZM429.185 -158.657L459.505 -164.172L421.358 -137.319L429.193 -158.657H429.185ZM514.102 -158.657L544.414 -164.172L506.267 -137.319L514.102 -158.657ZM599.011 -158.657L629.323 -164.172L591.176 -137.319L599.011 -158.657ZM598.123 -99.9324C597.832 -99.8798 597.6 -99.7162 597.525 -99.5117L589.607 -77.9524L581.689 -99.5117C581.614 -99.7162 581.382 -99.8798 581.091 -99.9324L550.464 -105.506L581.091 -111.08C581.382 -111.133 581.614 -111.296 581.689 -111.501L589.607 -133.06L597.525 -111.501C597.6 -111.296 597.832 -111.133 598.123 -111.08L628.75 -105.506L598.123 -99.9324ZM598.123 -40.1622C597.832 -40.1096 597.6 -39.9461 597.525 -39.7416L589.607 -18.1823L581.689 -39.7416C581.614 -39.9461 581.382 -40.1096 581.091 -40.1622L550.464 -45.7361L581.091 -51.31C581.382 -51.3626 581.614 -51.5262 581.689 -51.7307L589.607 -73.29L597.525 -51.7307C597.6 -51.5262 597.832 -51.3626 598.123 -51.31L628.75 -45.7361L598.123 -40.1622ZM598.115 19.6079C597.824 19.6605 597.592 19.8241 597.517 20.0286L589.599 41.5879L581.681 20.0286C581.606 19.8241 581.374 19.6605 581.083 19.6079L550.456 14.034L581.083 8.46014C581.374 8.40756 581.606 8.24399 581.681 8.03949L589.599 -13.5198L597.517 8.03949C597.592 8.24399 597.824 8.40756 598.115 8.46014L628.742 14.034L598.115 19.6079ZM598.123 79.378C597.832 79.4306 597.6 79.5942 597.525 79.7987L589.607 101.358L581.689 79.7987C581.614 79.5942 581.382 79.4306 581.091 79.378L550.464 73.8042L581.091 68.2303C581.382 68.1777 581.614 68.0141 581.689 67.8096L589.607 46.2503L597.525 67.8096C597.6 68.0141 597.832 68.1777 598.123 68.2303L628.75 73.8042L598.123 79.378ZM598.115 139.154C597.824 139.207 597.592 139.37 597.517 139.575L589.599 161.134L581.681 139.575C581.606 139.37 581.374 139.207 581.083 139.154L550.456 133.58L581.083 128.006C581.374 127.954 581.606 127.79 581.681 127.586L589.599 106.026L597.517 127.586C597.592 127.79 597.824 127.954 598.115 128.006L628.742 133.58L598.115 139.154ZM598.115 198.924C597.824 198.977 597.592 199.14 597.517 199.345L589.599 220.904L581.681 199.345C581.606 199.14 581.374 198.977 581.083 198.924L550.456 193.35L581.083 187.776C581.374 187.724 581.606 187.56 581.681 187.356L589.599 165.796L597.517 187.356C597.592 187.56 597.824 187.724 598.115 187.776L628.742 193.35L598.115 198.924ZM89.532 199.964L119.844 194.449L81.6968 221.301L89.532 199.958V199.964ZM89.532 140.194L119.844 134.679L81.6968 161.531L89.532 140.194ZM89.5404 80.4238L119.852 74.9084L81.7052 101.761L89.5404 80.4238ZM89.532 20.6537L119.844 15.1383L81.6968 41.991L89.532 20.6537ZM89.5404 -39.1164L119.852 -44.6319L81.7052 -17.7791L89.5404 -39.1164ZM89.5404 -98.8865L119.852 -104.402L81.7052 -77.5492L89.5404 -98.8865ZM513.206 198.924C512.915 198.977 512.683 199.14 512.608 199.345L504.69 220.91L496.772 199.345C496.697 199.14 496.465 198.977 496.174 198.924L465.547 193.35L496.174 187.776C496.465 187.724 496.697 187.56 496.772 187.356L504.69 165.791L512.608 187.356C512.683 187.56 512.915 187.724 513.206 187.776L543.833 193.35L513.206 198.924ZM428.288 198.924C427.998 198.977 427.765 199.14 427.691 199.345L419.772 220.904L411.854 199.345C411.78 199.14 411.547 198.977 411.257 198.924L380.63 193.35L411.257 187.776C411.547 187.724 411.78 187.56 411.854 187.356L419.772 165.796L427.691 187.356C427.765 187.56 427.998 187.724 428.288 187.776L458.915 193.35L428.288 198.924ZM343.379 198.924C343.089 198.977 342.856 199.14 342.782 199.345L334.863 220.904L326.954 199.351C326.879 199.146 326.646 198.983 326.356 198.93L295.729 193.356L326.356 187.782C326.646 187.73 326.879 187.566 326.954 187.362L334.872 165.808L342.79 187.362C342.865 187.566 343.097 187.73 343.388 187.782L374.015 193.356L343.388 198.93L343.379 198.924ZM258.47 198.924C258.18 198.977 257.947 199.14 257.873 199.345L249.954 220.904L242.036 199.345C241.962 199.14 241.729 198.977 241.439 198.924L210.812 193.35L241.439 187.776C241.729 187.724 241.962 187.56 242.036 187.356L249.954 165.796L257.873 187.356C257.947 187.56 258.18 187.724 258.47 187.776L289.097 193.35L258.47 198.924ZM173.553 198.924C173.262 198.977 173.03 199.14 172.955 199.345L165.037 220.91L157.119 199.345C157.044 199.14 156.812 198.977 156.521 198.924L125.894 193.35L156.521 187.776C156.812 187.724 157.044 187.56 157.119 187.356L165.037 165.791L172.955 187.356C173.03 187.56 173.262 187.724 173.553 187.776L204.18 193.35L173.553 198.924ZM174.449 -98.8865L204.769 -104.402L166.622 -77.5492L174.458 -98.8865H174.449ZM259.358 -98.8865L289.67 -104.402L251.523 -77.5492L259.358 -98.8865ZM344.267 -98.8865L374.587 -104.402L336.44 -77.5492L344.276 -98.8865H344.267ZM429.185 -98.8865L459.496 -104.402L421.349 -77.5492L429.185 -98.8865ZM514.094 -98.8865L544.405 -104.402L506.259 -77.5492L514.094 -98.8865ZM513.206 -40.1622C512.915 -40.1096 512.683 -39.9461 512.608 -39.7416L504.69 -18.1764L496.772 -39.7416C496.697 -39.9461 496.465 -40.1096 496.174 -40.1622L465.547 -45.7361L496.174 -51.31C496.465 -51.3626 496.697 -51.5262 496.772 -51.7307L504.69 -73.2958L512.608 -51.7307C512.683 -51.5262 512.915 -51.3626 513.206 -51.31L543.833 -45.7361L513.206 -40.1622ZM513.206 19.6079C512.915 19.6605 512.683 19.8241 512.608 20.0286L504.69 41.5937L496.772 20.0286C496.697 19.8241 496.465 19.6605 496.174 19.6079L465.547 14.034L496.174 8.46014C496.465 8.40756 496.697 8.24399 496.772 8.03949L504.69 -13.5257L512.608 8.03949C512.683 8.24399 512.915 8.40756 513.206 8.46014L543.833 14.034L513.206 19.6079ZM513.206 79.378C512.915 79.4306 512.683 79.5942 512.608 79.7987L504.69 101.364L496.772 79.7987C496.697 79.5942 496.465 79.4306 496.174 79.378L465.547 73.8042L496.174 68.2303C496.465 68.1777 496.697 68.0141 496.772 67.8096L504.69 46.2445L512.608 67.8096C512.683 68.0141 512.915 68.1777 513.206 68.2303L543.833 73.8042L513.206 79.378ZM513.206 139.154C512.915 139.207 512.683 139.37 512.608 139.575L504.69 161.14L496.772 139.575C496.697 139.37 496.465 139.207 496.174 139.154L465.547 133.58L496.174 128.006C496.465 127.954 496.697 127.79 496.772 127.586L504.69 106.02L512.608 127.586C512.683 127.79 512.915 127.954 513.206 128.006L543.833 133.58L513.206 139.154ZM174.449 140.194L204.761 134.679L166.614 161.531L174.449 140.194ZM174.449 80.4238L204.769 74.9084L166.622 101.761L174.458 80.4238H174.449ZM174.449 20.6537L204.761 15.1383L166.614 41.991L174.449 20.6537ZM174.449 -39.1164L204.769 -44.6319L166.622 -17.7791L174.458 -39.1164H174.449ZM428.288 139.154C427.998 139.207 427.765 139.37 427.691 139.575L419.772 161.134L411.854 139.575C411.78 139.37 411.547 139.207 411.257 139.154L380.63 133.58L411.257 128.006C411.547 127.954 411.78 127.79 411.854 127.586L419.772 106.026L427.691 127.586C427.765 127.79 427.998 127.954 428.288 128.006L458.915 133.58L428.288 139.154ZM343.379 139.154C343.089 139.207 342.856 139.37 342.782 139.575L334.863 161.128L326.954 139.575C326.879 139.37 326.646 139.207 326.356 139.154L295.729 133.58L326.356 128.006C326.646 127.954 326.879 127.79 326.954 127.586L334.872 106.032L342.79 127.586C342.865 127.79 343.097 127.954 343.388 128.006L374.015 133.58L343.388 139.154H343.379ZM258.47 139.154C258.18 139.207 257.947 139.37 257.873 139.575L249.954 161.134L242.036 139.575C241.962 139.37 241.729 139.207 241.439 139.154L210.812 133.58L241.439 128.006C241.729 127.954 241.962 127.79 242.036 127.586L249.954 106.026L257.873 127.586C257.947 127.79 258.18 127.954 258.47 128.006L289.097 133.58L258.47 139.154ZM259.358 -39.1164L289.67 -44.6319L251.523 -17.7791L259.358 -39.1164ZM344.267 -39.1164L374.587 -44.6319L336.44 -17.7791L344.276 -39.1164H344.267ZM429.185 -39.1164L459.496 -44.6319L421.349 -17.7791L429.185 -39.1164ZM428.288 19.6079C427.998 19.6605 427.765 19.8241 427.691 20.0286L419.772 41.5879L411.854 20.0286C411.78 19.8241 411.547 19.6605 411.257 19.6079L380.63 14.034L411.257 8.46014C411.547 8.40756 411.78 8.24399 411.854 8.03949L419.772 -13.5198L427.691 8.03949C427.765 8.24399 427.998 8.40756 428.288 8.46014L458.915 14.034L428.288 19.6079ZM428.297 79.378C428.006 79.4306 427.774 79.5942 427.699 79.7987L419.781 101.358L411.863 79.7987C411.788 79.5942 411.555 79.4306 411.265 79.378L380.638 73.8042L411.265 68.2303C411.555 68.1777 411.788 68.0141 411.863 67.8096L419.781 46.2503L427.699 67.8096C427.774 68.0141 428.006 68.1777 428.297 68.2303L458.924 73.8042L428.297 79.378ZM259.358 80.4238L289.67 74.9084L251.523 101.761L259.358 80.4238ZM259.358 20.6537L289.67 15.1383L251.523 41.991L259.358 20.6537ZM343.379 79.378C343.089 79.4306 342.856 79.5942 342.782 79.7987L334.872 101.352L326.954 79.7987C326.879 79.5942 326.646 79.4306 326.356 79.378L295.729 73.8042L326.356 68.2303C326.646 68.1777 326.879 68.0141 326.954 67.8096L334.872 46.2503L342.79 67.8038C342.865 68.0083 343.097 68.1719 343.388 68.2244L374.015 73.7983L343.388 79.3722L343.379 79.378ZM344.267 20.6537L374.579 15.1383L336.432 41.991L344.267 20.6537ZM337.611 45.0233L367.922 50.5388L375.758 71.8761L337.611 45.0233ZM374.587 72.7057L344.276 67.1903L336.44 45.853L374.587 72.7057ZM375.758 15.9679L367.922 37.3052L337.611 42.8207L375.758 15.9679ZM332.133 42.8207L301.821 37.3052L293.986 15.9621L332.133 42.8148V42.8207ZM295.156 15.1383L325.476 20.6537L333.311 41.991L295.165 15.1383H295.156ZM293.986 71.8819L301.821 50.5446L332.133 45.0292L293.986 71.8819ZM333.311 45.853L325.476 67.1961L295.165 72.7116L333.311 45.8588V45.853ZM369.408 49.9136C369.333 49.7091 369.101 49.5455 368.81 49.493L338.175 43.9191L368.802 38.3452C369.093 38.2926 369.325 38.129 369.4 37.9245L377.318 16.3594L385.236 37.9245C385.311 38.129 385.543 38.2926 385.834 38.3452L416.469 43.9191L385.842 49.493C385.552 49.5455 385.319 49.7091 385.244 49.9136L377.326 71.4788L369.408 49.9136ZM343.379 19.6079C343.089 19.6605 342.856 19.8241 342.782 20.0286L334.863 41.582L326.954 20.0286C326.879 19.8241 326.646 19.6605 326.356 19.6079L295.729 14.034L326.356 8.46014C326.646 8.40756 326.879 8.24399 326.954 8.03949L334.872 -13.514L342.79 8.03949C342.865 8.24399 343.097 8.40756 343.388 8.46014L374.015 14.034L343.388 19.6079H343.379ZM300.327 37.9304C300.402 38.1349 300.634 38.2985 300.925 38.3511L331.56 43.9249L300.933 49.4988C300.643 49.5514 300.41 49.715 300.335 49.9195L292.417 71.4846L284.499 49.9195C284.424 49.715 284.192 49.5514 283.901 49.4988L253.266 43.9249L283.893 38.3511C284.184 38.2985 284.416 38.1349 284.491 37.9304L292.409 16.3652L300.327 37.9304ZM325.476 80.4238L333.311 101.761L295.165 74.9084L325.476 80.4238ZM344.267 80.4238L374.587 74.9084L336.44 101.761L344.276 80.4238H344.267ZM386.73 50.5388L417.042 45.0233L378.895 71.8761L386.73 50.5388ZM386.722 37.3052L378.887 15.9621L417.034 42.8148L386.722 37.2994V37.3052ZM344.267 7.42017L336.432 -13.9171L374.579 12.9356L344.267 7.42017ZM325.468 7.42017L295.156 12.9356L333.303 -13.9171L325.468 7.42017ZM283.013 37.3052L252.693 42.8207L290.84 15.9679L283.005 37.3052H283.013ZM283.022 50.5388L290.857 71.8761L252.71 45.0233L283.03 50.5388H283.022ZM332.133 102.591L301.821 97.0753L293.986 75.7381L332.133 102.591ZM375.758 75.7381L367.922 97.0812L337.611 102.597L375.758 75.7439V75.7381ZM380.065 74.9084L410.377 80.4238L418.212 101.761L380.065 74.9084ZM417.042 102.591L386.722 97.0753L378.887 75.7381L417.034 102.591H417.042ZM418.22 45.853L410.385 67.1961L380.074 72.7116L418.22 45.8588V45.853ZM380.065 15.1383L410.377 20.6537L418.212 41.991L380.065 15.1383ZM378.887 12.1118L386.722 -9.22549L417.034 -14.7409L378.887 12.1118ZM418.212 -13.9171L410.377 7.42017L380.057 12.9356L418.204 -13.9171H418.212ZM337.602 -14.7468L367.922 -9.23132L375.758 12.1059L337.611 -14.7468H337.602ZM293.986 12.1118L301.821 -9.22549L332.141 -14.7409L293.994 12.1118H293.986ZM289.678 12.9356L259.367 7.42017L251.531 -13.9171L289.678 12.9356ZM252.702 -14.7468L283.013 -9.23132L290.849 12.1059L252.702 -14.7468ZM289.678 72.7057L259.367 67.1903L251.531 45.853L289.678 72.7057ZM290.849 75.7381L283.013 97.0812L252.702 102.597L290.849 75.7439V75.7381ZM283.901 98.1212C284.192 98.0686 284.424 97.905 284.499 97.7005L292.417 76.1354L300.335 97.7005C300.41 97.905 300.643 98.0686 300.933 98.1212L331.56 103.695L300.925 109.269C300.634 109.322 300.402 109.485 300.327 109.69L292.409 131.255L284.491 109.69C284.416 109.485 284.184 109.322 283.893 109.269L253.266 103.695L283.901 98.1212ZM368.81 98.1212C369.101 98.0686 369.333 97.905 369.408 97.7005L377.326 76.1354L385.244 97.7005C385.319 97.905 385.552 98.0686 385.842 98.1212L416.469 103.695L385.834 109.269C385.543 109.322 385.311 109.485 385.236 109.69L377.318 131.255L369.4 109.69C369.325 109.485 369.093 109.322 368.802 109.269L338.175 103.695L368.81 98.1212ZM385.834 -10.2772C385.543 -10.2246 385.311 -10.061 385.236 -9.85651L377.318 11.7086L369.4 -9.85651C369.325 -10.061 369.093 -10.2246 368.802 -10.2772L338.175 -15.851L368.81 -21.4249C369.101 -21.4775 369.333 -21.6411 369.408 -21.8456L377.326 -43.4107L385.244 -21.8456C385.319 -21.6411 385.552 -21.4775 385.842 -21.4249L416.469 -15.851L385.834 -10.2772ZM300.925 -10.2772C300.634 -10.2246 300.402 -10.061 300.327 -9.85651L292.409 11.7086L284.491 -9.85651C284.416 -10.061 284.184 -10.2246 283.893 -10.2772L253.266 -15.851L283.901 -21.4249C284.192 -21.4775 284.424 -21.6411 284.499 -21.8456L292.417 -43.4107L300.335 -21.8456C300.41 -21.6411 300.643 -21.4775 300.933 -21.4249L331.56 -15.851L300.925 -10.2772ZM257.873 8.04532C257.947 8.24982 258.18 8.41339 258.47 8.46597L289.097 14.0399L258.47 19.6137C258.18 19.6663 257.947 19.8299 257.873 20.0344L249.954 41.5937L242.036 20.0344C241.962 19.8299 241.729 19.6663 241.439 19.6137L210.812 14.0399L241.439 8.46597C241.729 8.41339 241.962 8.24982 242.036 8.04532L249.954 -13.514L257.873 8.04532ZM257.881 67.8155C257.956 68.0199 258.188 68.1835 258.479 68.2361L289.106 73.81L258.479 79.3839C258.188 79.4364 257.956 79.6 257.881 79.8045L249.963 101.364L242.045 79.8045C241.97 79.6 241.737 79.4364 241.447 79.3839L210.82 73.81L241.447 68.2361C241.737 68.1835 241.97 68.0199 242.045 67.8155L249.963 46.2561L257.881 67.8155ZM283.013 110.309L290.849 131.646L252.702 104.793L283.013 110.309ZM301.813 110.309L332.133 104.793L293.986 131.646L301.821 110.309H301.813ZM367.922 110.309L375.758 131.646L337.611 104.793L367.931 110.309H367.922ZM386.722 110.309L417.034 104.793L378.887 131.646L386.722 110.309ZM429.185 80.4238L459.496 74.9084L421.349 101.761L429.185 80.4238ZM429.185 67.1903L421.349 45.853L459.505 72.7057L429.185 67.1903ZM429.176 20.6537L459.496 15.1383L421.349 41.991L429.185 20.6537H429.176ZM429.176 7.42017L421.341 -13.9171L459.488 12.9356L429.176 7.42017ZM386.73 -22.4649L378.895 -43.8022L417.042 -16.9495L386.722 -22.4649H386.73ZM367.922 -22.4649L337.611 -16.9495L375.758 -43.8022L367.922 -22.4591V-22.4649ZM301.821 -22.4649L293.986 -43.8022L332.133 -16.9495L301.821 -22.4649ZM283.013 -22.4649L252.702 -16.9495L290.849 -43.8022L283.013 -22.4591V-22.4649ZM240.559 7.42017L210.247 12.9356L248.394 -13.9171L240.559 7.42017ZM240.559 20.6537L248.394 41.991L210.247 15.1383L240.559 20.6537ZM240.567 67.1903L210.256 72.7057L248.402 45.853L240.567 67.1961V67.1903ZM240.559 80.4238L248.394 101.761L210.239 74.9084L240.559 80.4238ZM289.678 132.476L259.367 126.96L251.531 105.617L289.678 132.47V132.476ZM333.303 105.623L325.468 126.96L295.156 132.476L333.303 105.623ZM374.587 132.476L344.276 126.96L336.44 105.617L374.587 132.47V132.476ZM418.212 105.623L410.377 126.96L380.057 132.476L418.204 105.623H418.212ZM422.52 104.793L452.831 110.309L460.667 131.646L422.52 104.793ZM459.496 132.476L429.185 126.96L421.349 105.617L459.496 132.47V132.476ZM460.675 75.7381L452.84 97.0812L422.528 102.597L460.675 75.7439V75.7381ZM422.52 45.0233L452.84 50.5388L460.675 71.8761L422.52 45.0233ZM460.667 15.9679L452.831 37.3052L422.52 42.8207L460.667 15.9679ZM422.52 -14.7468L452.831 -9.23132L460.667 12.1059L422.52 -14.7468ZM460.675 -43.808L452.84 -22.4649L422.528 -16.9495L460.675 -43.8022V-43.808ZM380.065 -44.6319L410.377 -39.1164L418.212 -17.7791L380.065 -44.6319ZM295.156 -44.6319L325.468 -39.1164L333.303 -17.7791L295.156 -44.6319ZM247.224 -16.9495L216.904 -22.4649L209.069 -43.8022L247.224 -16.9495ZM210.247 -44.6319L240.567 -39.1164L248.402 -17.7791L210.247 -44.6319ZM209.069 12.1118L216.904 -9.22549L247.215 -14.7409L209.069 12.1118ZM247.215 42.8207L216.904 37.3052L209.069 15.9621L247.215 42.8148V42.8207ZM209.077 71.8819L216.912 50.5446L247.224 45.0292L209.077 71.8819ZM247.224 102.591L216.904 97.0753L209.069 75.7381L247.224 102.591ZM209.069 131.652L216.904 110.315L247.215 104.799L209.069 131.652ZM248.394 105.623L240.559 126.96L210.247 132.476L248.394 105.623ZM454.317 109.684C454.242 109.479 454.01 109.316 453.719 109.263L423.092 103.689L453.728 98.1153C454.018 98.0628 454.251 97.8992 454.325 97.6947L462.244 76.1295L470.162 97.6947C470.237 97.8992 470.469 98.0628 470.759 98.1153L501.386 103.689L470.751 109.263C470.461 109.316 470.228 109.479 470.154 109.684L462.235 131.249L454.317 109.684ZM454.325 49.9136C454.251 49.7091 454.018 49.5455 453.728 49.493L423.092 43.9191L453.719 38.3452C454.01 38.2926 454.242 38.129 454.317 37.9245L462.235 16.3594L470.154 37.9245C470.228 38.129 470.461 38.2926 470.751 38.3452L501.386 43.9191L470.759 49.493C470.469 49.5455 470.237 49.7091 470.162 49.9136L462.244 71.4788L454.325 49.9136ZM454.317 -9.85651C454.242 -10.061 454.01 -10.2246 453.719 -10.2772L423.092 -15.851L453.728 -21.4249C454.018 -21.4775 454.251 -21.6411 454.325 -21.8456L462.244 -43.4107L470.162 -21.8456C470.237 -21.6411 470.469 -21.4775 470.759 -21.4249L501.386 -15.851L470.751 -10.2772C470.461 -10.2246 470.228 -10.061 470.154 -9.85651L462.235 11.7086L454.317 -9.85651ZM428.297 -40.1622C428.006 -40.1096 427.774 -39.9461 427.699 -39.7416L419.781 -18.1823L411.863 -39.7416C411.788 -39.9461 411.555 -40.1096 411.265 -40.1622L380.638 -45.7361L411.265 -51.31C411.555 -51.3626 411.788 -51.5262 411.863 -51.7307L419.781 -73.29L427.699 -51.7307C427.774 -51.5262 428.006 -51.3626 428.297 -51.31L458.924 -45.7361L428.297 -40.1622ZM343.379 -40.1622C343.089 -40.1096 342.856 -39.9461 342.782 -39.7416L334.872 -18.1881L326.954 -39.7416C326.879 -39.9461 326.646 -40.1096 326.356 -40.1622L295.729 -45.7361L326.356 -51.31C326.646 -51.3626 326.879 -51.5262 326.954 -51.7307L334.872 -73.2841L342.79 -51.7307C342.865 -51.5262 343.097 -51.3626 343.388 -51.31L374.015 -45.7361L343.388 -40.1622H343.379ZM258.47 -40.1622C258.18 -40.1096 257.947 -39.9461 257.873 -39.7416L249.954 -18.1823L242.036 -39.7416C241.962 -39.9461 241.729 -40.1096 241.439 -40.1622L210.812 -45.7361L241.439 -51.31C241.729 -51.3626 241.962 -51.5262 242.036 -51.7307L249.954 -73.29L257.873 -51.7307C257.947 -51.5262 258.18 -51.3626 258.47 -51.31L289.097 -45.7361L258.47 -40.1622ZM215.426 -21.8398C215.501 -21.6353 215.734 -21.4716 216.024 -21.4191L246.651 -15.8452L216.016 -10.2713C215.725 -10.2188 215.493 -10.0551 215.418 -9.85065L207.5 11.7145L199.582 -9.85065C199.507 -10.0551 199.275 -10.2188 198.984 -10.2713L168.357 -15.8452L198.992 -21.4191C199.283 -21.4716 199.515 -21.6353 199.59 -21.8398L207.508 -43.4049L215.426 -21.8398ZM215.418 37.9304C215.493 38.1349 215.725 38.2985 216.016 38.3511L246.651 43.9249L216.024 49.4988C215.734 49.5514 215.501 49.715 215.426 49.9195L207.508 71.4846L199.59 49.9195C199.515 49.715 199.283 49.5514 198.992 49.4988L168.357 43.9249L198.984 38.3511C199.275 38.2985 199.507 38.1349 199.582 37.9304L207.5 16.3652L215.418 37.9304ZM215.426 97.7005C215.501 97.905 215.734 98.0686 216.024 98.1212L246.651 103.695L216.016 109.269C215.725 109.322 215.493 109.485 215.418 109.69L207.5 131.255L199.582 109.69C199.507 109.485 199.275 109.322 198.984 109.269L168.357 103.695L198.992 98.1212C199.283 98.0686 199.515 97.905 199.59 97.7005L207.508 76.1354L215.426 97.7005ZM240.559 140.194L248.394 161.537L210.247 134.684L240.559 140.2V140.194ZM259.358 140.194L289.67 134.679L251.523 161.531L259.358 140.194ZM325.468 140.194L333.303 161.537L295.156 134.684L325.476 140.2L325.468 140.194ZM344.267 140.194L374.579 134.679L336.432 161.531L344.267 140.194ZM410.377 140.194L418.212 161.537L380.065 134.684L410.377 140.2V140.194ZM429.176 140.194L459.496 134.679L421.349 161.531L429.185 140.194H429.176ZM471.639 110.309L501.951 104.793L463.804 131.646L471.639 110.309ZM471.639 97.0753L463.804 75.7381L501.951 102.591L471.639 97.0753ZM471.639 50.5388L501.951 45.0233L463.804 71.8761L471.639 50.5388ZM471.631 37.3052L463.796 15.9621L501.951 42.8148L471.631 37.2994V37.3052ZM471.639 -9.23132L501.951 -14.7468L463.804 12.1059L471.639 -9.23132ZM471.639 -22.4649L463.804 -43.8022L501.951 -16.9495L471.639 -22.4649ZM429.185 -52.3499L421.349 -73.6873L459.505 -46.8345L429.185 -52.3499ZM410.385 -52.3499L380.074 -46.8345L418.22 -73.6873L410.385 -52.3499ZM344.276 -52.3499L336.44 -73.6873L374.587 -46.8345L344.276 -52.3499ZM325.476 -52.3499L295.165 -46.8345L333.311 -73.6873L325.476 -52.3499ZM259.367 -52.3499L251.531 -73.6873L289.678 -46.8345L259.367 -52.3499ZM240.567 -52.3499L210.256 -46.8345L248.402 -73.6873L240.567 -52.3499ZM198.104 -22.4649L167.793 -16.9495L205.94 -43.8022L198.104 -22.4591V-22.4649ZM198.104 -9.23132L205.94 12.1059L167.793 -14.7468L198.113 -9.23132H198.104ZM198.096 37.3052L167.785 42.8207L205.931 15.9679L198.096 37.3052ZM198.104 50.5388L205.94 71.8761L167.793 45.0233L198.104 50.5388ZM198.104 97.0753L167.793 102.591L205.94 75.7381L198.104 97.0812V97.0753ZM198.104 110.309L205.94 131.646L167.793 104.793L198.113 110.309H198.104ZM247.215 162.361L216.904 156.845L209.069 135.508L247.215 162.361ZM290.849 135.508L283.013 156.845L252.693 162.361L290.84 135.508H290.849ZM332.133 162.361L301.821 156.845L293.986 135.508L332.133 162.361ZM375.758 135.508L367.922 156.845L337.611 162.361L375.758 135.508ZM417.042 162.361L386.73 156.845L378.895 135.508L417.042 162.361ZM460.667 135.508L452.831 156.845L422.52 162.361L460.667 135.508ZM464.974 134.679L495.294 140.194L503.129 161.537L464.974 134.684V134.679ZM501.951 162.361L471.631 156.845L463.796 135.508L501.951 162.361ZM503.129 105.623L495.294 126.96L464.983 132.476L503.129 105.623ZM464.974 74.9084L495.286 80.4238L503.121 101.761L464.974 74.9084ZM503.129 45.853L495.294 67.1961L464.974 72.7116L503.121 45.8588L503.129 45.853ZM464.974 15.1383L495.294 20.6537L503.129 41.991L464.974 15.1383ZM503.129 -13.9171L495.294 7.42017L464.983 12.9356L503.129 -13.9171ZM464.974 -44.6319L495.286 -39.1164L503.121 -17.7791L464.974 -44.6319ZM463.804 -47.6642L471.639 -69.0015L501.951 -74.5169L463.804 -47.6642ZM503.129 -73.6931L495.294 -52.3558L464.974 -46.8404L503.121 -73.6931H503.129ZM422.52 -74.5169L452.84 -69.0015L460.675 -47.6584L422.52 -74.5111V-74.5169ZM378.895 -47.6642L386.73 -69.0015L417.042 -74.5169L378.895 -47.6642ZM337.611 -74.5169L367.922 -69.0015L375.758 -47.6584L337.611 -74.5111V-74.5169ZM293.986 -47.6642L301.821 -69.0015L332.133 -74.5169L293.986 -47.6642ZM252.702 -74.5169L283.022 -69.0015L290.857 -47.6584L252.71 -74.5111L252.702 -74.5169ZM209.077 -47.6642L216.912 -69.0015L247.224 -74.5169L209.077 -47.6642ZM204.769 -46.8345L174.458 -52.3499L166.622 -73.6873L204.769 -46.8345ZM167.793 -74.5169L198.104 -69.0015L205.94 -47.6584L167.793 -74.5111V-74.5169ZM204.761 12.9356L174.449 7.42017L166.614 -13.9171L204.761 12.9356ZM204.769 72.7057L174.458 67.1903L166.622 45.853L204.769 72.7057ZM204.761 132.476L174.449 126.96L166.614 105.617L204.761 132.47V132.476ZM205.931 135.508L198.096 156.845L167.785 162.361L205.931 135.508ZM198.984 157.891C199.275 157.839 199.507 157.675 199.582 157.471L207.5 135.905L215.418 157.471C215.493 157.675 215.725 157.839 216.016 157.891L246.643 163.465L216.016 169.039C215.725 169.092 215.493 169.255 215.418 169.46L207.5 191.025L199.582 169.46C199.507 169.255 199.275 169.092 198.984 169.039L168.349 163.465L198.976 157.891H198.984ZM283.901 157.891C284.192 157.839 284.424 157.675 284.499 157.471L292.417 135.905L300.335 157.471C300.41 157.675 300.643 157.839 300.933 157.891L331.56 163.465L300.933 169.039C300.643 169.092 300.41 169.255 300.335 169.46L292.417 191.025L284.499 169.46C284.424 169.255 284.192 169.092 283.901 169.039L253.266 163.465L283.893 157.891H283.901ZM368.81 157.891C369.101 157.839 369.333 157.675 369.408 157.471L377.326 135.905L385.244 157.471C385.319 157.675 385.552 157.839 385.842 157.891L416.469 163.465L385.842 169.039C385.552 169.092 385.319 169.255 385.244 169.46L377.326 191.025L369.408 169.46C369.333 169.255 369.101 169.092 368.81 169.039L338.175 163.465L368.802 157.891H368.81ZM453.719 157.891C454.01 157.839 454.242 157.675 454.317 157.471L462.235 135.905L470.154 157.471C470.228 157.675 470.461 157.839 470.751 157.891L501.378 163.465L470.751 169.039C470.461 169.092 470.228 169.255 470.154 169.46L462.235 191.025L454.317 169.46C454.242 169.255 454.01 169.092 453.719 169.039L423.084 163.465L453.711 157.891H453.719ZM470.751 -70.0473C470.461 -69.9947 470.228 -69.8311 470.154 -69.6266L462.235 -48.0615L454.317 -69.6266C454.242 -69.8311 454.01 -69.9947 453.719 -70.0473L423.084 -75.6212L453.711 -81.195C454.002 -81.2476 454.234 -81.4112 454.309 -81.6157L462.227 -103.181L470.145 -81.6157C470.22 -81.4112 470.452 -81.2476 470.743 -81.195L501.378 -75.6212L470.751 -70.0473ZM385.842 -70.0473C385.552 -69.9947 385.319 -69.8311 385.244 -69.6266L377.326 -48.0615L369.408 -69.6266C369.333 -69.8311 369.101 -69.9947 368.81 -70.0473L338.175 -75.6212L368.802 -81.195C369.093 -81.2476 369.325 -81.4112 369.4 -81.6157L377.318 -103.181L385.236 -81.6157C385.311 -81.4112 385.543 -81.2476 385.834 -81.195L416.469 -75.6212L385.842 -70.0473ZM300.933 -70.0473C300.643 -69.9947 300.41 -69.8311 300.335 -69.6266L292.417 -48.0615L284.499 -69.6266C284.424 -69.8311 284.192 -69.9947 283.901 -70.0473L253.266 -75.6212L283.893 -81.195C284.184 -81.2476 284.416 -81.4112 284.491 -81.6157L292.409 -103.181L300.327 -81.6157C300.402 -81.4112 300.634 -81.2476 300.925 -81.195L331.56 -75.6212L300.933 -70.0473ZM216.024 -70.0473C215.734 -69.9947 215.501 -69.8311 215.426 -69.6266L207.508 -48.0615L199.59 -69.6266C199.515 -69.8311 199.283 -69.9947 198.992 -70.0473L168.357 -75.6212L198.984 -81.195C199.275 -81.2476 199.507 -81.4112 199.582 -81.6157L207.5 -103.181L215.418 -81.6157C215.493 -81.4112 215.725 -81.2476 216.016 -81.195L246.651 -75.6212L216.024 -70.0473ZM172.972 -51.7248C173.047 -51.5203 173.279 -51.3567 173.57 -51.3041L204.197 -45.7303L173.57 -40.1564C173.279 -40.1038 173.047 -39.9402 172.972 -39.7357L165.054 -18.1706L157.136 -39.7357C157.061 -39.9402 156.828 -40.1038 156.538 -40.1564L125.911 -45.7303L156.538 -51.3041C156.828 -51.3567 157.061 -51.5203 157.136 -51.7248L165.054 -73.29L172.972 -51.7248ZM172.964 8.04532C173.038 8.24982 173.271 8.41339 173.561 8.46597L204.188 14.0399L173.561 19.6137C173.271 19.6663 173.038 19.8299 172.964 20.0344L165.045 41.5996L157.127 20.0344C157.053 19.8299 156.82 19.6663 156.53 19.6137L125.903 14.0399L156.53 8.46597C156.82 8.41339 157.053 8.24982 157.127 8.04532L165.045 -13.5198L172.964 8.04532ZM172.972 67.8155C173.047 68.0199 173.279 68.1835 173.57 68.2361L204.197 73.81L173.57 79.3839C173.279 79.4364 173.047 79.6 172.972 79.8045L165.054 101.37L157.136 79.8045C157.061 79.6 156.828 79.4364 156.538 79.3839L125.911 73.81L156.538 68.2361C156.828 68.1835 157.061 68.0199 157.136 67.8155L165.054 46.2503L172.972 67.8155ZM172.964 127.586C173.038 127.79 173.271 127.954 173.561 128.006L204.188 133.58L173.561 139.154C173.271 139.207 173.038 139.37 172.964 139.575L165.045 161.14L157.127 139.575C157.053 139.37 156.82 139.207 156.53 139.154L125.903 133.58L156.53 128.006C156.82 127.954 157.053 127.79 157.127 127.586L165.045 106.02L172.964 127.586ZM198.104 170.085L205.94 191.422L167.793 164.569L198.113 170.085H198.104ZM216.904 170.085L247.215 164.569L209.069 191.428L216.904 170.085ZM283.013 170.085L290.849 191.422L252.702 164.569L283.013 170.085ZM301.813 170.085L332.133 164.569L293.986 191.428L301.821 170.085H301.813ZM367.922 170.085L375.758 191.422L337.611 164.569L367.931 170.085H367.922ZM386.722 170.085L417.034 164.569L378.887 191.428L386.722 170.085ZM452.831 170.085L460.667 191.422L422.52 164.569L452.831 170.085ZM471.639 170.085L501.951 164.569L463.804 191.428L471.639 170.085ZM514.094 140.194L544.405 134.679L506.259 161.531L514.094 140.194ZM514.094 126.96L506.259 105.617L544.405 132.47L514.094 126.955V126.96ZM514.094 80.4238L544.405 74.9084L506.259 101.761L514.094 80.4238ZM514.102 67.1903L506.267 45.853L544.414 72.7057L514.094 67.1903H514.102ZM514.094 20.6537L544.405 15.1383L506.259 41.991L514.094 20.6537ZM514.094 7.42017L506.259 -13.9171L544.405 12.9356L514.094 7.42017ZM514.094 -39.1164L544.405 -44.6319L506.259 -17.7791L514.094 -39.1164ZM514.102 -52.3499L506.267 -73.6873L544.414 -46.8345L514.094 -52.3499H514.102ZM471.639 -82.235L463.804 -103.578L501.951 -76.7254L471.639 -82.2409V-82.235ZM452.84 -82.235L422.528 -76.7196L460.675 -103.572L452.84 -82.235ZM386.73 -82.235L378.895 -103.578L417.042 -76.7254L386.722 -82.2409L386.73 -82.235ZM367.922 -82.235L337.611 -76.7196L375.758 -103.572L367.922 -82.235ZM301.821 -82.235L293.986 -103.578L332.133 -76.7254L301.821 -82.2409V-82.235ZM283.013 -82.235L252.702 -76.7196L290.849 -103.572L283.013 -82.235ZM216.904 -82.235L209.069 -103.578L247.224 -76.7254L216.904 -82.2409V-82.235ZM198.104 -82.235L167.793 -76.7196L205.94 -103.572L198.104 -82.235ZM155.65 -52.3499L125.338 -46.8345L163.485 -73.6873L155.65 -52.3499ZM155.65 -39.1164L163.485 -17.7791L125.338 -44.6319L155.65 -39.1164ZM155.642 7.42017L125.33 12.9356L163.477 -13.9171L155.642 7.42017ZM155.642 20.6537L163.477 41.991L125.33 15.1383L155.642 20.6537ZM155.65 67.1903L125.338 72.7057L163.485 45.853L155.65 67.1961V67.1903ZM155.65 80.4238L163.485 101.761L125.338 74.9084L155.65 80.4238ZM155.642 126.96L125.33 132.476L163.477 105.623L155.642 126.96ZM155.642 140.194L163.477 161.537L125.33 134.684L155.642 140.2V140.194ZM204.761 192.246L174.449 186.731L166.614 165.393L204.761 192.246ZM248.394 165.393L240.559 186.736L210.247 192.252L248.394 165.393ZM289.678 192.246L259.367 186.731L251.531 165.393L289.678 192.246ZM333.303 165.393L325.468 186.736L295.156 192.252L333.303 165.393ZM374.587 192.246L344.276 186.731L336.44 165.393L374.587 192.246ZM418.212 165.393L410.377 186.736L380.057 192.252L418.204 165.393H418.212ZM459.496 192.246L429.185 186.731L421.349 165.393L459.496 192.246ZM503.129 165.393L495.294 186.736L464.983 192.252L503.129 165.393ZM507.429 164.569L537.74 170.085L545.576 191.422L507.429 164.569ZM544.405 192.246L514.094 186.731L506.259 165.393L544.405 192.246ZM545.584 135.508L537.749 156.845L507.437 162.361L545.584 135.508ZM507.429 104.793L537.74 110.309L545.576 131.646L507.429 104.793ZM545.584 75.7381L537.749 97.0812L507.429 102.597L545.576 75.7439L545.584 75.7381ZM507.437 45.0233L537.749 50.5388L545.584 71.8761L507.437 45.0233ZM545.584 15.9679L537.749 37.3052L507.437 42.8207L545.584 15.9679ZM507.429 -14.7468L537.74 -9.23132L545.576 12.1059L507.429 -14.7468ZM545.584 -43.808L537.749 -22.4649L507.429 -16.9495L545.576 -43.8022L545.584 -43.808ZM507.437 -74.5169L537.749 -69.0015L545.584 -47.6584L507.437 -74.5111V-74.5169ZM545.584 -103.578L537.749 -82.2409L507.429 -76.7254L545.576 -103.578H545.584ZM464.974 -104.402L495.286 -98.8865L503.121 -77.5492L464.974 -104.402ZM380.065 -104.402L410.377 -98.8865L418.212 -77.5492L380.065 -104.402ZM295.156 -104.402L325.468 -98.8865L333.303 -77.5492L295.156 -104.402ZM210.247 -104.402L240.567 -98.8865L248.402 -77.5492L210.247 -104.402ZM162.306 -76.7196L131.995 -82.235L124.16 -103.578L162.306 -76.7254V-76.7196ZM125.33 -104.402L155.642 -98.8865L163.477 -77.5492L125.33 -104.402ZM124.16 -47.6642L131.995 -69.0015L162.315 -74.5169L124.168 -47.6642H124.16ZM162.306 -16.9495L131.995 -22.4649L124.16 -43.8022L162.306 -16.9495ZM124.16 12.1118L131.995 -9.22549L162.306 -14.7409L124.16 12.1118ZM162.306 42.8207L131.987 37.3052L124.151 15.9621L162.298 42.8148L162.306 42.8207ZM124.16 71.8819L131.995 50.5446L162.315 45.0292L124.168 71.8819H124.16ZM162.306 102.591L131.995 97.0753L124.16 75.7381L162.306 102.591ZM124.16 131.652L131.995 110.315L162.306 104.799L124.16 131.652ZM162.306 162.361L131.987 156.845L124.151 135.508L162.298 162.361H162.306ZM124.16 191.422L131.995 170.079L162.306 164.564L124.16 191.422ZM163.477 165.393L155.642 186.736L125.33 192.252L163.477 165.393ZM539.234 169.454C539.16 169.249 538.927 169.086 538.637 169.033L508.002 163.459L538.629 157.885C538.919 157.833 539.151 157.669 539.226 157.465L547.144 135.9L555.063 157.465C555.137 157.669 555.37 157.833 555.66 157.885L586.287 163.459L555.66 169.033C555.37 169.086 555.137 169.249 555.063 169.454L547.144 191.019L539.226 169.454H539.234ZM539.234 109.684C539.16 109.479 538.927 109.316 538.637 109.263L508.01 103.689L538.645 98.1153C538.936 98.0628 539.168 97.8992 539.243 97.6947L547.161 76.1295L555.079 97.6947C555.154 97.8992 555.386 98.0628 555.677 98.1153L586.304 103.689L555.668 109.263C555.378 109.316 555.146 109.479 555.071 109.684L547.153 131.249L539.234 109.684ZM539.234 49.9136C539.16 49.7091 538.927 49.5455 538.637 49.493L508.002 43.9191L538.629 38.3452C538.919 38.2926 539.151 38.129 539.226 37.9245L547.144 16.3594L555.063 37.9245C555.137 38.129 555.37 38.2926 555.66 38.3452L586.295 43.9191L555.668 49.493C555.378 49.5455 555.146 49.7091 555.071 49.9136L547.153 71.4788L539.234 49.9136ZM539.234 -9.85651C539.16 -10.061 538.927 -10.2246 538.637 -10.2772L508.01 -15.851L538.645 -21.4249C538.936 -21.4775 539.168 -21.6411 539.243 -21.8456L547.161 -43.4107L555.079 -21.8456C555.154 -21.6411 555.386 -21.4775 555.677 -21.4249L586.304 -15.851L555.668 -10.2772C555.378 -10.2246 555.146 -10.061 555.071 -9.85651L547.153 11.7086L539.234 -9.85651ZM539.234 -69.6266C539.16 -69.8311 538.927 -69.9947 538.637 -70.0473L508.002 -75.6212L538.629 -81.195C538.919 -81.2476 539.151 -81.4112 539.226 -81.6157L547.144 -103.181L555.063 -81.6157C555.137 -81.4112 555.37 -81.2476 555.66 -81.195L586.295 -75.6212L555.668 -70.0473C555.378 -69.9947 555.146 -69.8311 555.071 -69.6266L547.153 -48.0615L539.234 -69.6266ZM513.206 -99.9324C512.915 -99.8798 512.683 -99.7162 512.608 -99.5117L504.69 -77.9465L496.772 -99.5117C496.697 -99.7162 496.465 -99.8798 496.174 -99.9324L465.547 -105.506L496.174 -111.08C496.465 -111.133 496.697 -111.296 496.772 -111.501L504.69 -133.066L512.608 -111.501C512.683 -111.296 512.915 -111.133 513.206 -111.08L543.833 -105.506L513.206 -99.9324ZM428.297 -99.9324C428.006 -99.8798 427.774 -99.7162 427.699 -99.5117L419.781 -77.9524L411.863 -99.5117C411.788 -99.7162 411.555 -99.8798 411.265 -99.9324L380.638 -105.506L411.265 -111.08C411.555 -111.133 411.788 -111.296 411.863 -111.501L419.781 -133.06L427.699 -111.501C427.774 -111.296 428.006 -111.133 428.297 -111.08L458.924 -105.506L428.297 -99.9324ZM343.379 -99.9324C343.089 -99.8798 342.856 -99.7162 342.782 -99.5117L334.872 -77.9582L326.954 -99.5117C326.879 -99.7162 326.646 -99.8798 326.356 -99.9324L295.729 -105.506L326.356 -111.08C326.646 -111.133 326.879 -111.296 326.954 -111.501L334.872 -133.06L342.79 -111.507C342.865 -111.302 343.097 -111.139 343.388 -111.086L374.015 -105.512L343.388 -99.9382L343.379 -99.9324ZM258.47 -99.9324C258.18 -99.8798 257.947 -99.7162 257.873 -99.5117L249.954 -77.9524L242.036 -99.5117C241.962 -99.7162 241.729 -99.8798 241.439 -99.9324L210.812 -105.506L241.439 -111.08C241.729 -111.133 241.962 -111.296 242.036 -111.501L249.954 -133.06L257.873 -111.501C257.947 -111.296 258.18 -111.133 258.47 -111.08L289.097 -105.506L258.47 -99.9324ZM173.561 -99.9324C173.271 -99.8798 173.038 -99.7162 172.964 -99.5117L165.045 -77.9465L157.127 -99.5117C157.053 -99.7162 156.82 -99.8798 156.53 -99.9324L125.903 -105.506L156.53 -111.08C156.82 -111.133 157.053 -111.296 157.127 -111.501L165.045 -133.066L172.964 -111.501C173.038 -111.296 173.271 -111.133 173.561 -111.08L204.188 -105.506L173.561 -99.9324ZM130.509 -81.6099C130.584 -81.4054 130.816 -81.2418 131.107 -81.1892L161.742 -75.6153L131.115 -70.0415C130.825 -69.9889 130.592 -69.8253 130.517 -69.6208L122.599 -48.0556L114.681 -69.6208C114.606 -69.8253 114.374 -69.9889 114.083 -70.0415L83.4482 -75.6153L114.075 -81.1892C114.366 -81.2418 114.598 -81.4054 114.673 -81.6099L122.591 -103.175L130.509 -81.6099ZM130.509 -21.8398C130.584 -21.6353 130.816 -21.4716 131.107 -21.4191L161.734 -15.8452L131.099 -10.2713C130.808 -10.2188 130.576 -10.0551 130.501 -9.85065L122.583 11.7145L114.664 -9.85065C114.59 -10.0551 114.357 -10.2188 114.067 -10.2713L83.4399 -15.8452L114.075 -21.4191C114.366 -21.4716 114.598 -21.6353 114.673 -21.8398L122.591 -43.4049L130.509 -21.8398ZM130.501 37.9304C130.576 38.1349 130.808 38.2985 131.099 38.3511L161.734 43.9249L131.107 49.4988C130.816 49.5514 130.584 49.715 130.509 49.9195L122.591 71.4846L114.673 49.9195C114.598 49.715 114.366 49.5514 114.075 49.4988L83.4399 43.9249L114.067 38.3511C114.357 38.2985 114.59 38.1349 114.664 37.9304L122.583 16.3652L130.501 37.9304ZM130.509 97.7005C130.584 97.905 130.816 98.0686 131.107 98.1212L161.734 103.695L131.099 109.269C130.808 109.322 130.576 109.485 130.501 109.69L122.583 131.255L114.664 109.69C114.59 109.485 114.357 109.322 114.067 109.269L83.4399 103.695L114.075 98.1212C114.366 98.0686 114.598 97.905 114.673 97.7005L122.591 76.1354L130.509 97.7005ZM130.501 157.471C130.576 157.675 130.808 157.839 131.099 157.891L161.725 163.465L131.099 169.039C130.808 169.092 130.576 169.255 130.501 169.46L122.583 191.025L114.664 169.46C114.59 169.255 114.357 169.092 114.067 169.039L83.4316 163.465L114.059 157.891C114.349 157.839 114.581 157.675 114.656 157.471L122.574 135.905L130.493 157.471H130.501ZM155.642 199.97L163.477 221.307L125.33 194.455L155.642 199.97ZM174.449 199.964L204.761 194.449L166.614 221.301L174.449 199.958V199.964ZM240.559 199.97L248.394 221.307L210.247 194.455L240.559 199.97ZM259.358 199.964L289.67 194.449L251.523 221.301L259.358 199.958V199.964ZM325.468 199.97L333.303 221.307L295.156 194.455L325.476 199.97H325.468ZM344.267 199.964L374.579 194.449L336.432 221.301L344.267 199.958V199.964ZM410.377 199.97L418.212 221.307L380.065 194.455L410.377 199.97ZM429.176 199.964L459.496 194.449L421.349 221.301L429.185 199.958L429.176 199.964ZM495.286 199.97L503.121 221.307L464.966 194.455L495.286 199.97ZM514.094 199.964L544.405 194.449L506.259 221.301L514.094 199.958V199.964ZM556.548 170.085L586.86 164.569L548.713 191.428L556.548 170.085ZM556.548 156.845L548.713 135.508L586.86 162.361L556.54 156.845H556.548ZM556.548 110.309L586.86 104.793L548.713 131.646L556.548 110.309ZM556.557 97.0753L548.721 75.7381L586.868 102.591L556.557 97.0753ZM556.557 50.5388L586.876 45.0233L548.73 71.8761L556.565 50.5388H556.557ZM556.548 37.3052L548.713 15.9621L586.86 42.8148L556.54 37.2994L556.548 37.3052ZM556.548 -9.23132L586.86 -14.7468L548.713 12.1059L556.548 -9.23132ZM556.557 -22.4649L548.721 -43.8022L586.868 -16.9495L556.557 -22.4649ZM556.557 -69.0015L586.876 -74.5169L548.73 -47.6642L556.565 -69.0015H556.557ZM556.557 -82.235L548.721 -103.578L586.868 -76.7254L556.557 -82.2409V-82.235ZM514.102 -112.12L506.267 -133.457L544.414 -106.605L514.094 -112.12H514.102ZM495.294 -112.12L464.974 -106.605L503.121 -133.457L495.286 -112.12H495.294ZM429.185 -112.12L421.349 -133.457L459.505 -106.605L429.185 -112.12ZM410.385 -112.12L380.074 -106.605L418.22 -133.457L410.385 -112.12ZM344.276 -112.12L336.44 -133.457L374.587 -106.605L344.276 -112.12ZM325.476 -112.12L295.165 -106.605L333.311 -133.457L325.476 -112.12ZM259.367 -112.12L251.531 -133.457L289.678 -106.605L259.367 -112.12ZM240.567 -112.12L210.256 -106.605L248.402 -133.457L240.567 -112.12ZM174.449 -112.12L166.614 -133.457L204.761 -106.605L174.449 -112.12ZM155.65 -112.12L125.338 -106.605L163.485 -133.457L155.65 -112.12ZM113.195 -82.235L82.8754 -76.7196L121.022 -103.572L113.187 -82.235H113.195ZM113.195 -69.0015L121.031 -47.6584L82.8838 -74.5111L113.195 -68.9956V-69.0015ZM113.195 -22.4649L82.8754 -16.9495L121.022 -43.8022L113.187 -22.4591L113.195 -22.4649ZM113.187 -9.23132L121.022 12.1059L82.8754 -14.7468L113.187 -9.23132ZM113.187 37.3052L82.8754 42.8207L121.022 15.9679L113.187 37.3052ZM113.195 50.5388L121.031 71.8761L82.8838 45.0233L113.195 50.5388ZM113.195 97.0753L82.8754 102.591L121.022 75.7381L113.187 97.0812L113.195 97.0753ZM113.187 110.309L121.022 131.646L82.8754 104.793L113.187 110.309ZM113.187 156.845L82.8754 162.361L121.022 135.508L113.187 156.845ZM113.187 170.085L121.022 191.422L82.8754 164.569L113.187 170.085ZM162.306 222.131L131.987 216.616L124.151 195.278L162.298 222.131H162.306ZM205.931 195.278L198.096 216.616L167.785 222.131L205.931 195.278ZM247.215 222.131L216.904 216.616L209.069 195.278L247.215 222.131ZM290.849 195.278L283.013 216.616L252.693 222.131L290.84 195.278H290.849ZM332.133 222.131L301.821 216.616L293.986 195.278L332.133 222.131ZM375.758 195.278L367.922 216.616L337.611 222.131L375.758 195.278ZM417.042 222.131L386.73 216.616L378.895 195.278L417.042 222.131ZM460.667 195.278L452.831 216.616L422.52 222.131L460.667 195.278ZM501.951 222.131L471.631 216.616L463.796 195.278L501.951 222.131ZM545.584 195.278L537.749 216.616L507.437 222.131L545.584 195.278ZM549.883 194.455L580.195 199.97L588.03 221.307L549.883 194.455ZM586.868 222.131L556.548 216.616L548.713 195.278L586.86 222.131H586.868ZM588.038 165.393L580.203 186.736L549.892 192.252L588.038 165.393ZM549.883 134.679L580.195 140.194L588.03 161.537L549.883 134.684V134.679ZM588.038 105.623L580.203 126.96L549.892 132.476L588.038 105.623ZM549.892 74.9084L580.212 80.4238L588.047 101.761L549.9 74.9084H549.892ZM588.047 45.853L580.212 67.1961L549.9 72.7116L588.047 45.8588V45.853ZM549.883 15.1383L580.195 20.6537L588.03 41.991L549.883 15.1383ZM588.038 -13.9171L580.203 7.42017L549.892 12.9356L588.038 -13.9171ZM549.892 -44.6319L580.212 -39.1164L588.047 -17.7791L549.9 -44.6319H549.892ZM588.047 -73.6931L580.212 -52.3558L549.9 -46.8404L588.047 -73.6931ZM549.892 -104.402L580.212 -98.8865L588.047 -77.5492L549.9 -104.402H549.892ZM548.721 -107.434L556.557 -128.777L586.876 -134.293L548.73 -107.44L548.721 -107.434ZM588.047 -133.463L580.212 -112.126L549.9 -106.61L588.047 -133.463ZM507.437 -134.287L537.749 -128.772L545.584 -107.434L507.437 -134.287ZM463.804 -107.434L471.639 -128.777L501.951 -134.293L463.804 -107.44V-107.434ZM422.52 -134.287L452.84 -128.772L460.675 -107.434L422.52 -134.287ZM378.895 -107.434L386.73 -128.777L417.042 -134.293L378.895 -107.44V-107.434ZM337.611 -134.287L367.922 -128.772L375.758 -107.434L337.611 -134.287ZM293.986 -107.434L301.821 -128.777L332.133 -134.293L293.986 -107.44V-107.434ZM252.702 -134.287L283.022 -128.772L290.857 -107.434L252.71 -134.287H252.702ZM209.077 -107.434L216.912 -128.777L247.224 -134.293L209.077 -107.44V-107.434ZM167.793 -134.287L198.104 -128.772L205.94 -107.434L167.793 -134.287ZM124.16 -107.434L131.995 -128.777L162.315 -134.293L124.168 -107.44L124.16 -107.434ZM119.852 -106.605L89.532 -112.12L81.6968 -133.457L119.844 -106.605H119.852ZM82.8754 -134.287L113.187 -128.772L121.022 -107.434L82.8754 -134.287ZM119.852 -46.8345L89.532 -52.3499L81.6968 -73.6873L119.844 -46.8345H119.852ZM119.852 12.9356L89.5404 7.42017L81.7052 -13.9171L119.852 12.9356ZM119.852 72.7057L89.532 67.1903L81.6968 45.853L119.844 72.7057H119.852ZM119.852 132.476L89.5404 126.96L81.7052 105.617L119.852 132.47V132.476ZM119.852 192.246L89.5404 186.731L81.7052 165.393L119.852 192.246ZM121.022 195.278L113.187 216.616L82.8754 222.131L121.022 195.278ZM114.075 217.661C114.366 217.609 114.598 217.445 114.673 217.241L122.591 195.676L130.509 217.241C130.584 217.445 130.816 217.609 131.107 217.661L161.734 223.235L131.099 228.809C130.808 228.862 130.576 229.025 130.501 229.23L122.583 250.795L114.664 229.23C114.59 229.025 114.357 228.862 114.067 228.809L83.4399 223.235L114.067 217.661H114.075ZM198.984 217.661C199.275 217.609 199.507 217.445 199.582 217.241L207.5 195.676L215.418 217.241C215.493 217.445 215.725 217.609 216.016 217.661L246.643 223.235L216.007 228.809C215.717 228.862 215.485 229.025 215.41 229.23L207.492 250.795L199.573 229.23C199.499 229.025 199.266 228.862 198.976 228.809L168.349 223.235L198.976 217.661H198.984ZM283.901 217.661C284.192 217.609 284.424 217.445 284.499 217.241L292.417 195.676L300.335 217.241C300.41 217.445 300.643 217.609 300.933 217.661L331.56 223.235L300.925 228.809C300.634 228.862 300.402 229.025 300.327 229.23L292.409 250.795L284.491 229.23C284.416 229.025 284.184 228.862 283.893 228.809L253.266 223.235L283.893 217.661H283.901ZM368.81 217.661C369.101 217.609 369.333 217.445 369.408 217.241L377.326 195.676L385.244 217.241C385.319 217.445 385.552 217.609 385.842 217.661L416.469 223.235L385.834 228.809C385.543 228.862 385.311 229.025 385.236 229.23L377.318 250.795L369.4 229.23C369.325 229.025 369.093 228.862 368.802 228.809L338.175 223.235L368.802 217.661H368.81ZM453.719 217.661C454.01 217.609 454.242 217.445 454.317 217.241L462.235 195.676L470.154 217.241C470.228 217.445 470.461 217.609 470.751 217.661L501.378 223.235L470.743 228.809C470.452 228.862 470.22 229.025 470.145 229.23L462.227 250.795L454.309 229.23C454.234 229.025 454.002 228.862 453.711 228.809L423.084 223.235L453.711 217.661H453.719ZM538.637 217.661C538.927 217.609 539.16 217.445 539.234 217.241L547.153 195.676L555.071 217.241C555.146 217.445 555.378 217.609 555.668 217.661L586.295 223.235L555.66 228.809C555.37 228.862 555.137 229.025 555.063 229.23L547.144 250.795L539.226 229.23C539.151 229.025 538.919 228.862 538.629 228.809L508.002 223.235L538.629 217.661H538.637ZM555.668 -129.817C555.378 -129.765 555.146 -129.601 555.071 -129.397L547.153 -107.832L539.234 -129.397C539.16 -129.601 538.927 -129.765 538.637 -129.817L508.01 -135.391L538.645 -140.965C538.936 -141.018 539.168 -141.181 539.243 -141.386L547.161 -162.951L555.079 -141.386C555.154 -141.181 555.386 -141.018 555.677 -140.965L586.304 -135.391L555.668 -129.817ZM470.751 -129.817C470.461 -129.765 470.228 -129.601 470.154 -129.397L462.235 -107.832L454.317 -129.397C454.242 -129.601 454.01 -129.765 453.719 -129.817L423.092 -135.391L453.728 -140.965C454.018 -141.018 454.251 -141.181 454.325 -141.386L462.244 -162.951L470.162 -141.386C470.237 -141.181 470.469 -141.018 470.759 -140.965L501.386 -135.391L470.751 -129.817ZM385.842 -129.817C385.552 -129.765 385.319 -129.601 385.244 -129.397L377.326 -107.832L369.408 -129.397C369.333 -129.601 369.101 -129.765 368.81 -129.817L338.184 -135.391L368.819 -140.965C369.109 -141.018 369.342 -141.181 369.416 -141.386L377.335 -162.951L385.253 -141.386C385.327 -141.181 385.56 -141.018 385.85 -140.965L416.477 -135.391L385.842 -129.817ZM300.933 -129.817C300.643 -129.765 300.41 -129.601 300.335 -129.397L292.417 -107.832L284.499 -129.397C284.424 -129.601 284.192 -129.765 283.901 -129.817L253.274 -135.391L283.91 -140.965C284.2 -141.018 284.433 -141.181 284.507 -141.386L292.426 -162.951L300.344 -141.386C300.418 -141.181 300.651 -141.018 300.941 -140.965L331.568 -135.391L300.933 -129.817ZM216.024 -129.817C215.734 -129.765 215.501 -129.601 215.426 -129.397L207.508 -107.832L199.59 -129.397C199.515 -129.601 199.283 -129.765 198.992 -129.817L168.365 -135.391L199.001 -140.965C199.291 -141.018 199.524 -141.181 199.598 -141.386L207.517 -162.951L215.435 -141.386C215.509 -141.181 215.742 -141.018 216.032 -140.965L246.659 -135.391L216.024 -129.817ZM131.107 -129.817C130.816 -129.765 130.584 -129.601 130.509 -129.397L122.591 -107.832L114.673 -129.397C114.598 -129.601 114.366 -129.765 114.075 -129.817L83.4482 -135.391L114.083 -140.965C114.374 -141.018 114.606 -141.181 114.681 -141.386L122.599 -162.951L130.517 -141.386C130.592 -141.181 130.825 -141.018 131.115 -140.965L161.742 -135.391L131.107 -129.817ZM88.0547 -111.495C88.1294 -111.29 88.3618 -111.127 88.6523 -111.074L119.279 -105.5L88.6523 -99.9265C88.3618 -99.8739 88.1294 -99.7104 88.0547 -99.5059L80.1365 -77.9465L72.2183 -99.5059C72.1436 -99.7104 71.9111 -99.8739 71.6207 -99.9265L40.9937 -105.5L71.6207 -111.074C71.9111 -111.127 72.1436 -111.29 72.2183 -111.495L80.1365 -133.054L88.0547 -111.495ZM88.0547 -51.7248C88.1294 -51.5203 88.3618 -51.3567 88.6523 -51.3041L119.279 -45.7303L88.6523 -40.1564C88.3618 -40.1038 88.1294 -39.9402 88.0547 -39.7357L80.1365 -18.1764L72.2183 -39.7357C72.1436 -39.9402 71.9111 -40.1038 71.6207 -40.1564L40.9937 -45.7303L71.6207 -51.3041C71.9111 -51.3567 72.1436 -51.5203 72.2183 -51.7248L80.1365 -73.2841L88.0547 -51.7248ZM88.0464 8.04532C88.1211 8.24982 88.3535 8.41339 88.644 8.46597L119.271 14.0399L88.644 19.6137C88.3535 19.6663 88.1211 19.8299 88.0464 20.0344L80.1282 41.5937L72.21 20.0344C72.1353 19.8299 71.9029 19.6663 71.6124 19.6137L40.9854 14.0399L71.6124 8.46597C71.9029 8.41339 72.1353 8.24982 72.21 8.04532L80.1282 -13.514L88.0464 8.04532ZM88.0547 67.8155C88.1294 68.0199 88.3618 68.1835 88.6523 68.2361L119.279 73.81L88.6523 79.3839C88.3618 79.4364 88.1294 79.6 88.0547 79.8045L80.1365 101.364L72.2183 79.8045C72.1436 79.6 71.9111 79.4364 71.6207 79.3839L40.9937 73.81L71.6207 68.2361C71.9111 68.1835 72.1436 68.0199 72.2183 67.8155L80.1365 46.2561L88.0547 67.8155ZM88.0464 127.586C88.1211 127.79 88.3535 127.954 88.644 128.006L119.271 133.58L88.644 139.154C88.3535 139.207 88.1211 139.37 88.0464 139.575L80.1282 161.134L72.21 139.575C72.1353 139.37 71.9029 139.207 71.6124 139.154L40.9854 133.58L71.6124 128.006C71.9029 127.954 72.1353 127.79 72.21 127.586L80.1282 106.026L88.0464 127.586ZM88.0464 187.356C88.1211 187.56 88.3535 187.724 88.644 187.776L119.271 193.35L88.644 198.924C88.3535 198.977 88.1211 199.14 88.0464 199.345L80.1282 220.904L72.21 199.345C72.1353 199.14 71.9029 198.977 71.6124 198.924L40.9854 193.35L71.6124 187.776C71.9029 187.724 72.1353 187.56 72.21 187.356L80.1282 165.796L88.0464 187.356ZM113.187 229.855L121.022 251.198L82.8672 224.34L113.187 229.855ZM131.987 229.855L162.298 224.34L124.151 251.192L131.987 229.855ZM198.096 229.855L205.931 251.198L167.785 224.34L198.096 229.855ZM216.896 229.855L247.215 224.34L209.069 251.192L216.904 229.855H216.896ZM283.005 229.855L290.84 251.198L252.693 224.34L283.005 229.855ZM301.813 229.855L332.124 224.34L293.978 251.192L301.813 229.855ZM367.914 229.855L375.749 251.198L337.602 224.34L367.914 229.855ZM386.722 229.855L417.034 224.34L378.887 251.192L386.722 229.855ZM452.831 229.855L460.667 251.198L422.52 224.34L452.84 229.855H452.831ZM471.631 229.855L501.943 224.34L463.796 251.192L471.631 229.855ZM537.74 229.855L545.576 251.198L507.429 224.34L537.74 229.855ZM556.548 229.855L586.86 224.34L548.713 251.192L556.548 229.855ZM599.003 199.964L629.314 194.449L591.168 221.301L599.003 199.958V199.964ZM599.003 186.731L591.168 165.393L629.323 192.246L599.003 186.731ZM599.003 140.194L629.314 134.679L591.168 161.531L599.003 140.194ZM599.003 126.96L591.168 105.617L629.314 132.47L598.994 126.955L599.003 126.96ZM599.011 80.4238L629.323 74.9084L591.176 101.761L599.011 80.4238ZM599.011 67.1903L591.176 45.853L629.323 72.7057L599.011 67.1903ZM599.003 20.6537L629.314 15.1383L591.168 41.991L599.003 20.6537ZM599.003 7.42017L591.168 -13.9171L629.314 12.9356L598.994 7.42017H599.003ZM599.011 -39.1164L629.323 -44.6319L591.176 -17.7791L599.011 -39.1164ZM599.011 -52.3499L591.176 -73.6873L629.323 -46.8345L599.011 -52.3499ZM599.011 -98.8865L629.323 -104.402L591.176 -77.5492L599.011 -98.8865ZM599.011 -112.12L591.176 -133.457L629.323 -106.605L599.011 -112.12ZM556.557 -142.005L548.721 -163.342L586.868 -136.49L556.557 -142.005ZM537.757 -142.005L507.445 -136.49L545.592 -163.342L537.757 -142.005ZM471.648 -142.005L463.812 -163.342L501.959 -136.49L471.639 -142.005H471.648ZM452.84 -142.005L422.528 -136.49L460.675 -163.342L452.84 -142.005ZM386.73 -142.005L378.895 -163.342L417.042 -136.49L386.73 -142.005ZM367.931 -142.005L337.611 -136.49L375.758 -163.342L367.922 -142.005H367.931ZM301.821 -142.005L293.986 -163.342L332.141 -136.49L301.821 -142.005ZM283.022 -142.005L252.71 -136.49L290.857 -163.342L283.022 -142.005ZM216.912 -142.005L209.077 -163.342L247.224 -136.49L216.912 -142.005ZM198.113 -142.005L167.801 -136.49L205.948 -163.342L198.113 -142.005ZM132.003 -142.005L124.168 -163.342L162.315 -136.49L132.003 -142.005ZM113.195 -142.005L82.8838 -136.49L121.031 -163.342L113.195 -142.005ZM70.7408 -112.12L40.4293 -106.605L78.576 -133.457L70.7408 -112.12ZM70.7325 -98.8865L78.5677 -77.5492L40.421 -104.402L70.7325 -98.8865ZM70.7408 -52.3499L40.4293 -46.8345L78.576 -73.6873L70.7408 -52.3499ZM70.7325 -39.1164L78.5677 -17.7791L40.421 -44.6319L70.7325 -39.1164ZM70.7325 7.42017L40.421 12.9356L78.5677 -13.9171L70.7325 7.42017ZM70.7325 20.6537L78.5677 41.991L40.421 15.1383L70.7325 20.6537ZM70.7408 67.1903L40.4293 72.7057L78.576 45.853L70.7408 67.1961V67.1903ZM70.7325 80.4238L78.5677 101.761L40.421 74.9084L70.7325 80.4238ZM70.7325 126.96L40.421 132.476L78.5677 105.623L70.7325 126.96ZM70.7325 140.194L78.5677 161.537L40.421 134.684L70.7325 140.2V140.194ZM70.7325 186.736L40.421 192.252L78.5677 165.393L70.7325 186.736ZM70.7325 199.97L78.5677 221.307L40.421 194.455L70.7325 199.97ZM119.844 252.022L89.5237 246.507L81.6885 225.163L119.844 252.022ZM163.477 225.163L155.642 246.501L125.322 252.016L163.469 225.163H163.477ZM204.761 252.022L174.449 246.507L166.614 225.163L204.761 252.022ZM248.386 225.163L240.551 246.501L210.239 252.016L248.386 225.163ZM289.67 252.022L259.358 246.507L251.523 225.163L289.67 252.022ZM333.303 225.163L325.468 246.501L295.156 252.016L333.303 225.163ZM374.579 252.022L344.267 246.507L336.432 225.163L374.579 252.022ZM418.212 225.163L410.377 246.501L380.065 252.016L418.212 225.163ZM459.488 252.022L429.176 246.507L421.341 225.163L459.488 252.022ZM503.121 225.163L495.286 246.501L464.974 252.016L503.121 225.163ZM544.405 252.022L514.085 246.507L506.25 225.163L544.397 252.022H544.405ZM588.038 225.163L580.203 246.501L549.883 252.016L588.03 225.163H588.038ZM592.338 224.34L622.649 229.855L630.485 251.198L592.338 224.34ZM629.314 252.022L599.003 246.507L591.168 225.163L629.314 252.022ZM630.493 195.278L622.658 216.616L592.338 222.131L630.493 195.278ZM592.346 164.569L622.658 170.085L630.493 191.422L592.346 164.569ZM630.493 135.508L622.658 156.845L592.338 162.361L630.485 135.508H630.493ZM592.346 104.793L622.658 110.309L630.493 131.646L592.346 104.793ZM630.501 75.7381L622.666 97.0812L592.354 102.597L630.501 75.7439V75.7381ZM592.346 45.0233L622.658 50.5388L630.493 71.8761L592.346 45.0233ZM630.493 15.9679L622.658 37.3052L592.338 42.8207L630.485 15.9679H630.493ZM592.346 -14.7468L622.658 -9.23132L630.493 12.1059L592.346 -14.7468ZM630.501 -43.808L622.666 -22.4649L592.354 -16.9495L630.501 -43.8022V-43.808ZM592.346 -74.5169L622.658 -69.0015L630.493 -47.6584L592.346 -74.5111V-74.5169ZM630.501 -103.578L622.666 -82.2409L592.354 -76.7254L630.501 -103.578ZM592.346 -134.287L622.658 -128.772L630.493 -107.434L592.346 -134.287ZM630.501 -163.348L622.666 -142.011L592.346 -136.496L630.493 -163.348H630.501ZM549.9 -164.172L580.212 -158.657L588.047 -137.314L549.9 -164.166V-164.172ZM464.983 -164.172L495.294 -158.657L503.129 -137.314L464.983 -164.166V-164.172ZM380.074 -164.172L410.385 -158.657L418.22 -137.314L380.074 -164.166V-164.172ZM295.165 -164.172L325.484 -158.657L333.32 -137.314L295.165 -164.166V-164.172ZM210.256 -164.172L240.567 -158.657L248.402 -137.314L210.256 -164.166V-164.172ZM125.338 -164.172L155.65 -158.657L163.485 -137.314L125.338 -164.166V-164.172ZM77.4058 -136.49L47.0942 -142.005L39.259 -163.342L77.4058 -136.49ZM40.4293 -164.172L70.7491 -158.657L78.5844 -137.314L40.4376 -164.166L40.4293 -164.172ZM39.2507 -107.434L47.0859 -128.777L77.3975 -134.293L39.2507 -107.44V-107.434ZM77.3975 -76.7196L47.0859 -82.235L39.2507 -103.578L77.3975 -76.7254V-76.7196ZM39.2507 -47.6642L47.0859 -69.0015L77.3975 -74.5169L39.2507 -47.6642ZM77.3975 -16.9495L47.0859 -22.4649L39.2507 -43.8022L77.3975 -16.9495ZM39.2424 12.1118L47.0775 -9.22549L77.3975 -14.7409L39.2507 12.1118H39.2424ZM77.3892 42.8207L47.0775 37.3052L39.2424 15.9621L77.3892 42.8148V42.8207ZM39.2507 71.8819L47.0859 50.5446L77.3975 45.0292L39.2507 71.8819ZM77.3975 102.591L47.0859 97.0753L39.2507 75.7381L77.3975 102.591ZM39.2424 131.652L47.0775 110.315L77.3975 104.799L39.2507 131.652H39.2424ZM77.3892 162.361L47.0775 156.845L39.2424 135.508L77.3892 162.361ZM39.2424 191.422L47.0775 170.079L77.3975 164.564L39.2507 191.422H39.2424ZM77.3892 222.131L47.0775 216.616L39.2424 195.278L77.3892 222.131ZM39.2424 251.192L47.0775 229.855L77.3892 224.34L39.2424 251.192ZM78.5595 225.163L70.7243 246.501L40.4127 252.016L78.5595 225.163ZM624.135 229.23C624.06 229.025 623.828 228.862 623.538 228.809L592.911 223.235L623.538 217.661C623.828 217.609 624.06 217.445 624.135 217.241L632.053 195.676L639.972 217.241C640.046 217.445 640.279 217.609 640.569 217.661L671.196 223.235L640.561 228.809C640.27 228.862 640.038 229.025 639.963 229.23L632.045 250.795L624.127 229.23H624.135ZM624.143 169.454C624.069 169.249 623.836 169.086 623.546 169.033L592.911 163.459L623.538 157.885C623.828 157.833 624.06 157.669 624.135 157.465L632.053 135.9L639.972 157.465C640.046 157.669 640.279 157.833 640.569 157.885L671.196 163.459L640.569 169.033C640.279 169.086 640.046 169.249 639.972 169.454L632.053 191.019L624.135 169.454H624.143ZM624.143 109.684C624.069 109.479 623.836 109.316 623.546 109.263L592.919 103.689L623.554 98.1153C623.845 98.0628 624.077 97.8992 624.152 97.6947L632.07 76.1295L639.988 97.6947C640.063 97.8992 640.295 98.0628 640.586 98.1153L671.213 103.689L640.577 109.263C640.287 109.316 640.055 109.479 639.98 109.684L632.062 131.249L624.143 109.684ZM624.152 49.9136C624.077 49.7091 623.845 49.5455 623.554 49.493L592.919 43.9191L623.546 38.3452C623.836 38.2926 624.069 38.129 624.143 37.9245L632.062 16.3594L639.98 37.9245C640.055 38.129 640.287 38.2926 640.577 38.3452L671.213 43.9191L640.586 49.493C640.295 49.5455 640.063 49.7091 639.988 49.9136L632.07 71.4788L624.152 49.9136ZM624.143 -9.85651C624.069 -10.061 623.836 -10.2246 623.546 -10.2772L592.919 -15.851L623.554 -21.4249C623.845 -21.4775 624.077 -21.6411 624.152 -21.8456L632.07 -43.4107L639.988 -21.8456C640.063 -21.6411 640.295 -21.4775 640.586 -21.4249L671.213 -15.851L640.577 -10.2772C640.287 -10.2246 640.055 -10.061 639.98 -9.85651L632.062 11.7086L624.143 -9.85651ZM624.152 -69.6266C624.077 -69.8311 623.845 -69.9947 623.554 -70.0473L592.919 -75.6212L623.546 -81.195C623.836 -81.2476 624.069 -81.4112 624.143 -81.6157L632.062 -103.181L639.98 -81.6157C640.055 -81.4112 640.287 -81.2476 640.577 -81.195L671.213 -75.6212L640.586 -70.0473C640.295 -69.9947 640.063 -69.8311 639.988 -69.6266L632.07 -48.0615L624.152 -69.6266ZM624.152 -129.397C624.077 -129.601 623.845 -129.765 623.554 -129.817L592.927 -135.391L623.562 -140.965C623.853 -141.018 624.085 -141.181 624.16 -141.386L632.078 -162.951L639.996 -141.386C640.071 -141.181 640.304 -141.018 640.594 -140.965L671.221 -135.391L640.586 -129.817C640.295 -129.765 640.063 -129.601 639.988 -129.397L632.07 -107.832L624.152 -129.397ZM598.123 -159.702C597.832 -159.65 597.6 -159.486 597.525 -159.282L589.607 -137.723L581.689 -159.282C581.614 -159.486 581.382 -159.65 581.091 -159.702L550.464 -165.276L581.091 -170.85C581.382 -170.903 581.614 -171.066 581.689 -171.271L589.607 -192.83L597.525 -171.271C597.6 -171.066 597.832 -170.903 598.123 -170.85L628.75 -165.276L598.123 -159.702ZM513.214 -159.702C512.923 -159.65 512.691 -159.486 512.616 -159.282L504.698 -137.717L496.78 -159.282C496.705 -159.486 496.473 -159.65 496.182 -159.702L465.555 -165.276L496.182 -170.85C496.473 -170.903 496.705 -171.066 496.78 -171.271L504.698 -192.836L512.616 -171.271C512.691 -171.066 512.923 -170.903 513.214 -170.85L543.841 -165.276L513.214 -159.702ZM428.297 -159.702C428.006 -159.65 427.774 -159.486 427.699 -159.282L419.781 -137.723L411.863 -159.282C411.788 -159.486 411.555 -159.65 411.265 -159.702L380.638 -165.276L411.265 -170.85C411.555 -170.903 411.788 -171.066 411.863 -171.271L419.781 -192.83L427.699 -171.271C427.774 -171.066 428.006 -170.903 428.297 -170.85L458.924 -165.276L428.297 -159.702ZM343.388 -159.702C343.097 -159.65 342.865 -159.486 342.79 -159.282L334.872 -137.728L326.954 -159.282C326.879 -159.486 326.646 -159.65 326.356 -159.702L295.729 -165.276L326.356 -170.85C326.646 -170.903 326.879 -171.066 326.954 -171.271L334.872 -192.824L342.782 -171.271C342.856 -171.066 343.089 -170.903 343.379 -170.85L374.006 -165.276L343.379 -159.702H343.388ZM258.479 -159.702C258.188 -159.65 257.956 -159.486 257.881 -159.282L249.963 -137.723L242.045 -159.282C241.97 -159.486 241.737 -159.65 241.447 -159.702L210.82 -165.276L241.447 -170.85C241.737 -170.903 241.97 -171.066 242.045 -171.271L249.963 -192.83L257.881 -171.271C257.956 -171.066 258.188 -170.903 258.479 -170.85L289.106 -165.276L258.479 -159.702ZM173.57 -159.702C173.279 -159.65 173.047 -159.486 172.972 -159.282L165.054 -137.717L157.136 -159.282C157.061 -159.486 156.828 -159.65 156.538 -159.702L125.911 -165.276L156.538 -170.85C156.828 -170.903 157.061 -171.066 157.136 -171.271L165.054 -192.836L172.972 -171.271C173.047 -171.066 173.279 -170.903 173.57 -170.85L204.197 -165.276L173.57 -159.702ZM88.6523 -159.702C88.3618 -159.65 88.1294 -159.486 88.0547 -159.282L80.1365 -137.723L72.2183 -159.282C72.1436 -159.486 71.9111 -159.65 71.6207 -159.702L40.9937 -165.276L71.6207 -170.85C71.9111 -170.903 72.1436 -171.066 72.2183 -171.271L80.1365 -192.83L88.0547 -171.271C88.1294 -171.066 88.3618 -170.903 88.6523 -170.85L119.279 -165.276L88.6523 -159.702ZM45.6002 -141.38C45.6749 -141.176 45.9072 -141.012 46.1978 -140.959L76.8248 -135.385L46.1895 -129.812C45.899 -129.759 45.6666 -129.595 45.5919 -129.391L37.6737 -107.826L29.7554 -129.391C29.6807 -129.595 29.4484 -129.759 29.1579 -129.812L-1.46918 -135.385L29.1662 -140.959C29.4567 -141.012 29.689 -141.176 29.7637 -141.38L37.682 -162.945L45.6002 -141.38ZM45.6002 -81.6099C45.6749 -81.4054 45.9072 -81.2418 46.1978 -81.1892L76.8331 -75.6153L46.2061 -70.0415C45.9155 -69.9889 45.6832 -69.8253 45.6085 -69.6208L37.6902 -48.0556L29.772 -69.6208C29.6974 -69.8253 29.465 -69.9889 29.1745 -70.0415L-1.46088 -75.6153L29.1662 -81.1892C29.4567 -81.2418 29.689 -81.4054 29.7637 -81.6099L37.682 -103.175L45.6002 -81.6099ZM45.6002 -21.8398C45.6749 -21.6353 45.9072 -21.4716 46.1978 -21.4191L76.8248 -15.8452L46.1895 -10.2713C45.899 -10.2188 45.6666 -10.0551 45.5919 -9.85065L37.6737 11.7145L29.7554 -9.85065C29.6807 -10.0551 29.4484 -10.2188 29.1579 -10.2713L-1.46918 -15.8452L29.1662 -21.4191C29.4567 -21.4716 29.689 -21.6353 29.7637 -21.8398L37.682 -43.4049L45.6002 -21.8398ZM45.5919 37.9304C45.6666 38.1349 45.899 38.2985 46.1895 38.3511L76.8248 43.9249L46.1978 49.4988C45.9072 49.5514 45.6749 49.715 45.6002 49.9195L37.682 71.4846L29.7637 49.9195C29.689 49.715 29.4567 49.5514 29.1662 49.4988L-1.46918 43.9249L29.1579 38.3511C29.4484 38.2985 29.6807 38.1349 29.7554 37.9304L37.6737 16.3652L45.5919 37.9304ZM45.6002 97.7005C45.6749 97.905 45.9072 98.0686 46.1978 98.1212L76.8248 103.695L46.1895 109.269C45.899 109.322 45.6666 109.485 45.5919 109.69L37.6737 131.255L29.7554 109.69C29.6807 109.485 29.4484 109.322 29.1579 109.269L-1.46918 103.695L29.1662 98.1212C29.4567 98.0686 29.689 97.905 29.7637 97.7005L37.682 76.1354L45.6002 97.7005ZM45.5919 157.471C45.6666 157.675 45.899 157.839 46.1895 157.891L76.8165 163.465L46.1895 169.039C45.899 169.092 45.6666 169.255 45.5919 169.46L37.6737 191.025L29.7554 169.46C29.6807 169.255 29.4484 169.092 29.1579 169.039L-1.47748 163.465L29.1495 157.891C29.4401 157.839 29.6725 157.675 29.7472 157.471L37.6653 135.905L45.5836 157.471H45.5919ZM45.5919 217.241C45.6666 217.445 45.899 217.609 46.1895 217.661L76.8165 223.235L46.1812 228.809C45.8907 228.862 45.6583 229.025 45.5836 229.23L37.6653 250.795L29.7472 229.23C29.6725 229.025 29.4401 228.862 29.1495 228.809L-1.47748 223.235L29.1495 217.661C29.4401 217.609 29.6725 217.445 29.7472 217.241L37.6653 195.676L45.5836 217.241H45.5919ZM28.2698 229.855L36.105 251.198L-2.04187 224.34L28.2698 229.855ZM70.7243 259.74L78.5595 281.083L40.4127 254.23L70.7243 259.746V259.74ZM89.5237 259.74L119.835 254.225L81.6885 281.077L89.5237 259.74ZM155.633 259.74L163.469 281.083L125.322 254.23L155.633 259.746V259.74ZM174.441 259.74L204.753 254.225L166.606 281.077L174.441 259.74ZM240.551 259.74L248.386 281.083L210.239 254.23L240.559 259.746L240.551 259.74ZM259.35 259.74L289.662 254.225L251.515 281.077L259.35 259.74ZM325.46 259.74L333.295 281.083L295.148 254.23L325.46 259.746V259.74ZM344.259 259.74L374.579 254.225L336.432 281.077L344.267 259.74H344.259ZM410.369 259.74L418.204 281.083L380.049 254.23L410.369 259.746V259.74ZM429.168 259.74L459.48 254.225L421.333 281.077L429.168 259.74ZM495.286 259.74L503.121 281.083L464.974 254.23L495.286 259.746V259.74ZM514.085 259.74L544.397 254.225L506.25 281.077L514.085 259.74ZM580.195 259.74L588.03 281.083L549.883 254.23L580.195 259.746V259.74ZM598.994 259.74L629.314 254.225L591.168 281.077L599.003 259.74H598.994ZM641.457 229.855L671.769 224.34L633.622 251.192L641.457 229.855ZM641.457 216.616L633.622 195.278L671.777 222.131L641.466 216.616H641.457ZM641.466 170.085L671.785 164.569L633.63 191.422L641.466 170.079V170.085ZM641.457 156.845L633.622 135.508L671.777 162.361L641.466 156.845H641.457ZM641.466 110.309L671.785 104.793L633.63 131.646L641.466 110.309ZM641.466 97.0753L633.63 75.7381L671.777 102.591L641.466 97.0753ZM641.466 50.5388L671.777 45.0233L633.63 71.8761L641.466 50.5388ZM641.457 37.3052L633.622 15.9621L671.769 42.8148L641.457 37.2994V37.3052ZM641.466 -9.23132L671.785 -14.7468L633.63 12.1059L641.466 -9.23132ZM641.466 -22.4649L633.63 -43.8022L671.777 -16.9495L641.466 -22.4649ZM641.466 -69.0015L671.777 -74.5169L633.63 -47.6642L641.466 -69.0015ZM641.466 -82.235L633.63 -103.578L671.777 -76.7254L641.466 -82.2409V-82.235ZM641.466 -128.772L671.777 -134.287L633.63 -107.434L641.466 -128.777V-128.772ZM641.474 -142.005L633.639 -163.342L671.794 -136.49L641.474 -142.005ZM599.019 -171.89L591.184 -193.228L629.331 -166.375L599.011 -171.89H599.019ZM580.22 -171.89L549.908 -166.375L588.055 -193.228L580.22 -171.89ZM514.102 -171.89L506.267 -193.228L544.414 -166.375L514.102 -171.89ZM495.303 -171.89L464.991 -166.375L503.138 -193.228L495.303 -171.89ZM429.193 -171.89L421.358 -193.228L459.505 -166.375L429.193 -171.89ZM410.393 -171.89L380.074 -166.375L418.22 -193.228L410.385 -171.89H410.393ZM344.276 -171.89L336.44 -193.228L374.587 -166.375L344.267 -171.89H344.276ZM325.484 -171.89L295.173 -166.375L333.32 -193.228L325.484 -171.89ZM259.367 -171.89L251.531 -193.228L289.678 -166.375L259.367 -171.89ZM240.567 -171.89L210.247 -166.375L248.394 -193.228L240.559 -171.89H240.567ZM174.458 -171.89L166.622 -193.228L204.769 -166.375L174.458 -171.89ZM155.658 -171.89L125.347 -166.375L163.493 -193.228L155.658 -171.89ZM89.5487 -171.89L81.7135 -193.228L119.86 -166.375L89.5487 -171.89ZM70.7408 -171.89L40.4293 -166.375L78.576 -193.228L70.7408 -171.89ZM28.2864 -142.005L-2.03357 -136.49L36.1133 -163.342L28.2781 -142.005H28.2864ZM28.2781 -128.772L36.1133 -107.434L-2.03357 -134.287L28.2781 -128.772ZM28.2781 -82.235L-2.03357 -76.7196L36.1133 -103.572L28.2781 -82.235ZM28.2781 -69.0015L36.1133 -47.6584L-2.03357 -74.5111L28.2781 -68.9956V-69.0015ZM28.2781 -22.4649L-2.03357 -16.9495L36.1133 -43.8022L28.2781 -22.4591V-22.4649ZM28.2781 -9.23132L36.1133 12.1059L-2.03357 -14.7468L28.2781 -9.23132ZM28.2781 37.3052L-2.04187 42.8207L36.105 15.9679L28.2698 37.3052H28.2781ZM28.2781 50.5388L36.1133 71.8761L-2.03357 45.0233L28.2781 50.5388ZM28.2781 97.0753L-2.03357 102.591L36.1133 75.7381L28.2781 97.0812V97.0753ZM28.2781 110.309L36.1133 131.646L-2.03357 104.793L28.2781 110.309ZM28.2781 156.845L-2.04187 162.361L36.105 135.508L28.2698 156.845H28.2781ZM28.2781 170.085L36.1133 191.422L-2.03357 164.569L28.2781 170.085ZM28.2781 216.616L-2.04187 222.131L36.105 195.278L28.2698 216.616H28.2781ZM-3.22046 225.163L34.9264 252.022L4.61475 246.507L-3.22046 225.163ZM4.61475 259.74L34.9264 254.225L-3.22046 281.077L4.61475 259.74ZM28.2698 276.392L-2.04187 281.907L36.105 255.054L28.2698 276.392ZM39.2341 255.048L77.3809 281.901L47.061 276.386L39.2258 255.048H39.2341ZM113.179 276.392L82.8672 281.907L121.014 255.054L113.179 276.392ZM124.151 255.048L162.298 281.901L131.987 276.386L124.151 255.048ZM198.096 276.392L167.776 281.907L205.923 255.054L198.088 276.392H198.096ZM209.06 255.048L247.207 281.901L216.896 276.386L209.06 255.048ZM283.005 276.392L252.693 281.907L290.84 255.054L283.005 276.392ZM293.978 255.048L332.124 281.901L301.813 276.386L293.978 255.048ZM367.914 276.392L337.602 281.907L375.749 255.054L367.914 276.392ZM378.878 255.048L417.034 281.901L386.714 276.386L378.878 255.048ZM452.823 276.392L422.511 281.907L460.658 255.054L452.823 276.392ZM463.796 255.048L501.943 281.901L471.631 276.386L463.796 255.048ZM537.74 276.392L507.421 281.907L545.567 255.054L537.732 276.392H537.74ZM548.705 255.048L586.852 281.901L556.54 276.386L548.705 255.048ZM622.649 276.392L592.338 281.907L630.485 255.054L622.649 276.392ZM633.622 255.048L671.769 281.901L641.449 276.386L633.614 255.048H633.622ZM672.947 281.077L634.801 254.225L665.112 259.74L672.947 281.083V281.077ZM665.112 246.507L634.801 252.022L672.947 225.163L665.112 246.507ZM672.947 221.307L634.801 194.455L665.112 199.97L672.947 221.307ZM665.121 186.736L634.809 192.252L672.947 165.393L665.121 186.736ZM672.947 161.537L634.801 134.684L665.112 140.194L672.947 161.537ZM665.121 126.96L634.809 132.476L672.956 105.623L665.121 126.96ZM672.956 101.767L634.809 74.9142L665.121 80.4238L672.956 101.761V101.767ZM665.121 67.1903L634.809 72.7057L672.956 45.853L665.121 67.1903ZM672.947 41.9969L634.801 15.1441L665.112 20.6595L672.947 41.9969ZM665.121 7.42017L634.809 12.9356L672.956 -13.9171L665.121 7.42017ZM672.956 -17.7791L634.809 -44.6319L665.121 -39.1164L672.956 -17.7791ZM665.121 -52.3499L634.809 -46.8345L672.956 -73.6873L665.121 -52.3499ZM672.956 -77.5492L634.809 -104.402L665.121 -98.8865L672.956 -77.5492ZM665.121 -112.12L634.809 -106.605L672.956 -133.457L665.121 -112.12ZM672.956 -137.319L634.809 -164.172L665.121 -158.657L672.956 -137.314V-137.319ZM665.129 -171.89L634.817 -166.375L672.964 -193.228L665.129 -171.89ZM641.474 -188.542L671.794 -194.057L633.647 -167.204L641.482 -188.542H641.474ZM630.51 -167.204L592.363 -194.057L622.674 -188.542L630.51 -167.199V-167.204ZM556.565 -188.542L586.876 -194.057L548.73 -167.204L556.565 -188.542ZM545.592 -167.204L507.445 -194.057L537.757 -188.542L545.592 -167.199V-167.204ZM471.648 -188.542L501.959 -194.057L463.812 -167.204L471.648 -188.542ZM460.683 -167.204L422.536 -194.057L452.848 -188.542L460.683 -167.199V-167.204ZM386.738 -188.542L417.05 -194.057L378.903 -167.204L386.738 -188.542ZM375.766 -167.204L337.619 -194.057L367.931 -188.542L375.766 -167.199V-167.204ZM301.829 -188.542L332.141 -194.057L293.994 -167.204L301.829 -188.542ZM290.857 -167.204L252.71 -194.057L283.022 -188.542L290.857 -167.199V-167.204ZM216.912 -188.542L247.224 -194.057L209.077 -167.204L216.912 -188.542ZM205.948 -167.204L167.801 -194.057L198.121 -188.542L205.956 -167.199L205.948 -167.204ZM132.003 -188.542L162.315 -194.057L124.168 -167.204L132.003 -188.542ZM121.031 -167.204L82.8838 -194.057L113.195 -188.542L121.031 -167.199V-167.204ZM47.0859 -188.542L77.4058 -194.057L39.259 -167.204L47.0942 -188.542H47.0859ZM36.1216 -167.204L-2.02527 -194.057L28.2864 -188.542L36.1216 -167.199V-167.204ZM-3.20386 -193.233L34.9429 -166.381L4.63135 -171.896L-3.20386 -193.233ZM4.63135 -158.657L34.9429 -164.172L-3.20386 -137.319L4.63135 -158.657ZM-3.20386 -133.463L34.9429 -106.61L4.63135 -112.126L-3.20386 -133.463ZM4.62305 -98.8865L34.9347 -104.402L-3.21216 -77.5492L4.62305 -98.8865ZM-3.20386 -73.6931L34.9429 -46.8404L4.63135 -52.3558L-3.20386 -73.6931ZM4.62305 -39.1164L34.9347 -44.6319L-3.21216 -17.7791L4.62305 -39.1164ZM-3.21216 -13.923L34.9347 12.9298L4.61475 7.41431L-3.22046 -13.923H-3.21216ZM4.62305 20.6537L34.9347 15.1383L-3.21216 41.991L4.62305 20.6537ZM-3.20386 45.853L34.9429 72.7057L4.63135 67.1903L-3.20386 45.853ZM4.62305 80.4238L34.9347 74.9084L-3.21216 101.761L4.62305 80.4238ZM-3.21216 105.623L34.9347 132.476L4.61475 126.96L-3.22046 105.617L-3.21216 105.623ZM4.62305 140.194L34.9347 134.679L-3.21216 161.531L4.62305 140.194ZM-3.21216 165.393L34.9347 192.246L4.61475 186.731L-3.22046 165.393H-3.21216ZM4.62305 199.964L34.9347 194.449L-3.21216 221.301L4.62305 199.958V199.964Z" fill="white"/>
</g>
</g>
<defs>
<clipPath id="clip0_341_459">
<rect width="628" height="177" fill="white" transform="matrix(-1 0 0 -1 628 177)"/>
</clipPath>
</defs>
</svg>
